<?xml version="1.0" standalone="no"?>
<!DOCTYPE svg PUBLIC "-//W3C//DTD SVG 20010904//EN"
 "http://www.w3.org/TR/2001/REC-SVG-20010904/DTD/svg10.dtd">
<svg version="1.0" xmlns="http://www.w3.org/2000/svg"
 width="460.000000pt" height="460.000000pt" viewBox="0 0 460.000000 460.000000"
 preserveAspectRatio="xMidYMid meet">
<metadata>
Created by potrace 1.11, written by Peter Selinger 2001-2013
</metadata>
<g transform="translate(0.000000,460.000000) scale(0.100000,-0.100000)"
fill="#000000" stroke="none">
<path d="M2070 4585 c0 -8 -4 -15 -10 -15 -5 0 -12 -11 -16 -25 -3 -14 -10
-25 -15 -25 -5 0 -9 -6 -9 -14 0 -17 -32 -80 -42 -84 -5 -2 -8 -14 -8 -27 0
-12 -7 -25 -15 -29 -8 -3 -15 -17 -15 -31 0 -14 -4 -25 -10 -25 -5 0 -10 -8
-10 -18 0 -22 -34 -52 -60 -52 -14 0 -20 -7 -20 -23 0 -22 -4 -24 -61 -26 -38
-1 -67 -8 -76 -17 -8 -8 -19 -14 -24 -14 -6 0 -25 -16 -43 -35 -19 -19 -38
-35 -45 -35 -7 0 -11 -37 -11 -119 0 -94 3 -123 15 -135 14 -14 14 -17 -5 -36
-11 -11 -27 -20 -35 -20 -8 0 -15 -4 -15 -10 0 -5 -7 -10 -15 -10 -8 0 -15 -5
-15 -11 0 -6 -7 -17 -15 -25 -10 -10 -15 -35 -15 -70 0 -48 -2 -54 -21 -54
-24 0 -44 -17 -53 -48 -4 -12 -12 -22 -17 -22 -5 0 -9 -22 -9 -49 0 -36 4 -51
16 -55 13 -5 15 -16 11 -53 -3 -26 -10 -49 -16 -51 -6 -2 -11 -15 -11 -28 0
-13 -4 -24 -9 -24 -5 0 -12 -18 -16 -40 -4 -22 -11 -40 -16 -40 -5 0 -9 -15
-9 -34 0 -19 -5 -36 -11 -38 -6 -2 -13 -25 -16 -51 -3 -26 -10 -47 -14 -47 -5
0 -9 -16 -9 -36 0 -19 -7 -42 -15 -50 -8 -9 -15 -33 -15 -55 0 -21 -4 -39 -10
-39 -5 0 -10 -17 -10 -38 0 -21 -7 -47 -15 -58 -8 -10 -15 -38 -15 -61 0 -24
-4 -43 -9 -43 -5 0 -11 -23 -13 -52 -3 -29 -11 -54 -17 -56 -6 -2 -11 -15 -11
-28 0 -19 -5 -24 -25 -24 -16 0 -25 -6 -25 -15 0 -8 -7 -15 -15 -15 -8 0 -15
-4 -15 -10 0 -5 -11 -10 -25 -10 -16 0 -25 -6 -25 -15 0 -8 -5 -15 -11 -15 -6
0 -17 -6 -24 -12 -33 -30 -45 -38 -55 -38 -5 0 -10 -5 -10 -11 0 -14 -25 -39
-39 -39 -6 0 -11 -11 -11 -25 0 -16 -6 -25 -15 -25 -8 0 -15 -7 -15 -15 0 -8
-4 -15 -10 -15 -5 0 -10 -9 -10 -20 0 -11 -7 -23 -15 -26 -12 -5 -15 -26 -15
-104 0 -55 4 -101 9 -105 6 -3 20 -25 31 -49 12 -24 31 -49 43 -57 11 -8 29
-22 39 -31 10 -10 22 -18 28 -18 5 0 10 -4 10 -10 0 -5 9 -10 21 -10 11 0 27
-7 35 -15 9 -8 26 -15 40 -15 l24 0 0 -115 c0 -70 -4 -115 -10 -115 -5 0 -10
-22 -10 -50 0 -31 -4 -50 -12 -50 -6 0 -9 -2 -6 -5 3 -3 13 -3 22 1 11 4 16
18 16 45 0 21 5 39 11 39 5 0 7 5 4 10 -3 6 -1 10 4 10 7 0 11 38 11 106 l0
105 38 -3 37 -3 -3 -60 c-2 -33 -8 -61 -13 -63 -5 -2 -9 -41 -9 -86 0 -45 -4
-86 -10 -92 -5 -5 -13 -38 -16 -72 -4 -34 -11 -62 -15 -62 -5 0 -9 -27 -9 -61
0 -40 -5 -65 -15 -75 -8 -9 -15 -33 -15 -55 0 -21 -4 -39 -10 -39 -5 0 -10
-21 -10 -46 0 -27 -6 -51 -15 -60 -8 -9 -15 -26 -15 -40 0 -13 -4 -24 -10 -24
-5 0 -10 -13 -10 -29 0 -16 -7 -36 -15 -45 -8 -8 -15 -28 -15 -45 0 -17 -4
-31 -9 -31 -5 0 -12 -14 -16 -30 -4 -17 -11 -30 -16 -30 -5 0 -9 -10 -9 -21 0
-12 -11 -32 -25 -45 -14 -13 -25 -32 -25 -44 0 -11 -3 -20 -7 -20 -8 0 -43
-56 -43 -68 0 -4 40 -5 88 -4 71 3 92 1 105 -12 8 -9 27 -16 41 -16 14 0 26
-4 26 -10 0 -5 8 -10 18 -10 18 0 52 -33 52 -50 0 -6 -7 -10 -15 -10 -8 0 -15
-4 -15 -10 0 -5 -11 -10 -24 -10 -14 0 -31 -7 -40 -15 -8 -8 -26 -15 -40 -15
-14 0 -26 -4 -26 -10 0 -5 -7 -10 -16 -10 -17 0 -71 -27 -92 -48 -7 -6 -17
-12 -22 -12 -12 0 -22 -34 -14 -54 4 -10 18 -16 36 -16 16 0 36 -7 44 -15 10
-9 34 -15 65 -15 27 0 49 -4 49 -10 0 -6 50 -10 130 -10 72 0 130 4 130 9 0 5
28 11 62 13 35 3 64 10 66 16 2 7 15 12 28 12 23 0 24 2 24 75 0 68 2 75 19
75 11 0 23 -5 26 -10 4 -6 64 -10 146 -10 91 0 138 4 134 10 -4 6 16 10 54 10
40 0 65 5 75 15 8 8 30 15 49 15 20 0 37 5 39 10 2 6 59 11 139 13 116 2 138
0 152 -15 22 -21 23 -88 2 -88 -9 0 -15 -9 -15 -25 0 -14 -4 -25 -10 -25 -5 0
-10 -12 -10 -26 0 -14 4 -23 10 -19 6 4 10 -6 10 -23 0 -23 5 -31 25 -36 14
-4 25 -11 25 -16 0 -6 23 -10 50 -10 28 0 50 -5 50 -10 0 -7 91 -9 267 -8 246
3 268 4 271 20 2 10 -4 25 -12 34 -9 8 -16 22 -16 30 0 8 -4 13 -9 10 -5 -4
-23 7 -39 24 -17 16 -40 30 -51 30 -12 0 -21 4 -21 9 0 5 -11 12 -25 15 -14 4
-25 11 -25 16 0 6 -12 10 -26 10 -14 0 -32 7 -40 15 -9 8 -26 15 -40 15 -13 0
-24 5 -24 10 0 6 -7 10 -15 10 -11 0 -15 11 -15 40 0 29 4 40 15 40 8 0 15 9
15 20 0 11 8 29 17 40 15 17 30 20 99 20 60 0 85 -4 94 -15 7 -8 23 -15 37
-15 25 0 133 -97 133 -119 0 -6 7 -11 15 -11 8 0 15 -4 15 -10 0 -5 15 -10 34
-10 21 0 36 -6 40 -15 3 -8 17 -15 31 -15 14 0 25 -4 25 -10 0 -5 18 -10 41
-10 24 0 38 4 34 10 -3 5 -17 10 -31 10 -13 0 -24 4 -24 10 0 5 -16 12 -35 16
-19 3 -35 10 -35 15 0 5 -12 9 -26 9 -26 0 -54 20 -54 39 0 6 -7 11 -15 11
-10 0 -15 10 -15 30 0 17 -5 30 -12 30 -10 0 -9 3 1 9 9 6 10 10 1 13 -15 5
-15 520 0 548 6 10 10 75 10 144 0 83 4 126 11 128 7 2 14 42 17 101 2 53 9
97 13 97 5 0 9 33 9 72 0 91 24 158 58 158 12 0 22 -4 22 -9 0 -5 11 -12 25
-15 14 -4 25 -11 25 -16 0 -6 5 -10 11 -10 17 0 39 -27 39 -49 0 -12 -4 -21
-9 -21 -5 0 -12 -38 -16 -85 -4 -47 -11 -87 -16 -91 -5 -3 -9 -43 -9 -90 0
-47 -4 -83 -8 -80 -12 7 -17 -81 -17 -303 0 -147 3 -195 13 -199 6 -2 12 -13
12 -24 0 -11 11 -31 25 -44 14 -13 25 -30 25 -38 0 -9 11 -18 25 -22 14 -3 25
-10 25 -15 0 -5 7 -9 15 -9 8 0 15 3 15 8 -1 12 -27 42 -38 42 -5 0 -13 11
-16 25 -4 14 -11 25 -16 25 -6 0 -10 11 -10 25 0 23 4 25 44 25 51 0 70 16 31
26 -14 3 -25 10 -25 15 0 5 -17 9 -38 9 -48 0 -62 14 -62 61 0 40 16 61 26 35
3 -9 12 -16 19 -16 8 0 37 -22 66 -50 29 -27 56 -50 61 -50 4 0 8 -18 8 -40 0
-29 4 -40 15 -40 8 0 15 -4 15 -10 0 -5 8 -10 18 -10 24 0 52 -35 52 -64 0
-13 7 -37 15 -52 8 -16 15 -50 15 -76 0 -27 5 -48 10 -48 6 0 10 33 10 79 0
44 -4 83 -10 86 -5 3 -10 26 -10 51 l0 44 90 0 c88 0 91 -1 120 -31 24 -26 31
-29 36 -16 6 17 -16 47 -34 47 -6 0 -12 6 -15 13 -2 8 -27 12 -75 12 -52 -1
-72 3 -72 12 0 7 4 13 9 13 5 0 12 11 15 25 6 24 10 25 77 25 53 0 71 4 75 15
4 8 10 15 16 15 12 0 38 26 38 38 0 6 5 12 12 14 16 6 14 291 -1 296 -6 2 -11
15 -11 28 0 14 4 22 10 19 6 -3 10 -1 10 4 0 6 7 11 15 11 8 0 15 7 15 16 0 8
4 13 9 10 5 -3 12 5 15 19 4 14 11 25 16 25 6 0 10 26 10 59 0 50 -3 61 -25
77 -14 10 -25 22 -25 26 0 5 23 30 50 57 28 27 50 52 50 56 0 3 7 13 15 21 8
9 15 33 15 54 0 21 -7 45 -15 54 -8 8 -15 17 -15 21 0 17 -30 33 -72 39 -53 8
-58 16 -58 95 0 31 -4 61 -9 67 -5 5 -11 44 -13 87 -2 43 -8 81 -14 85 -5 4
-11 25 -13 47 -2 22 -6 42 -10 45 -5 3 -11 17 -15 33 -3 15 -11 27 -16 27 -6
0 -10 11 -10 25 0 14 -4 25 -10 25 -5 0 -12 11 -16 25 -3 14 -10 25 -15 25 -5
0 -9 7 -9 15 0 8 -5 15 -10 15 -6 0 -22 11 -36 25 -14 14 -31 25 -39 25 -8 0
-15 5 -15 10 0 6 -9 10 -20 10 -21 0 -60 33 -60 50 0 6 -4 10 -10 10 -5 0 -10
9 -10 20 0 11 -7 23 -15 26 -8 4 -15 12 -15 20 0 24 -69 84 -96 84 -14 0 -22
4 -19 10 4 6 -17 10 -54 10 -48 0 -61 3 -61 15 0 8 -5 15 -11 15 -24 0 -39 30
-39 79 0 28 -4 51 -10 51 -5 0 -12 11 -16 25 -4 16 -13 25 -25 25 -10 0 -19 5
-19 10 0 6 -6 10 -14 10 -8 0 -16 7 -20 15 -4 10 -20 15 -50 15 l-45 0 -7 50
c-4 28 -10 50 -15 50 -5 0 -9 11 -9 24 0 17 -7 26 -25 30 -14 4 -25 11 -25 16
0 6 -11 10 -25 10 -14 0 -25 5 -25 10 0 6 -7 10 -15 10 -9 0 -15 9 -15 25 0
22 4 25 38 25 43 0 92 34 92 63 0 9 5 17 10 17 6 0 10 -4 10 -10 0 -5 11 -10
25 -10 14 0 28 -7 31 -15 4 -8 15 -15 26 -15 21 0 48 -22 48 -39 0 -6 7 -11
15 -11 8 0 15 -5 15 -11 0 -14 25 -39 39 -39 6 0 11 -5 11 -11 0 -19 108 -119
129 -119 10 0 21 -5 23 -12 2 -6 31 -13 66 -16 l62 -4 0 -74 c0 -42 4 -74 10
-74 5 0 12 -11 16 -25 4 -18 13 -25 31 -25 13 0 22 -4 18 -9 -7 -13 77 -25
106 -16 12 4 39 24 61 45 35 36 38 43 38 95 0 49 -4 60 -28 83 -15 15 -37 32
-47 38 -17 9 -21 25 -25 97 -3 49 -10 91 -17 99 -7 6 -13 27 -13 46 0 19 -4
31 -10 27 -5 -3 -10 3 -10 14 0 11 -7 26 -15 35 -8 8 -15 19 -15 24 0 6 -4 12
-9 14 -5 2 -11 12 -13 23 -3 18 3 20 50 23 69 4 67 22 -4 22 -34 0 -53 -4 -49
-10 3 -6 -5 -10 -18 -10 -14 0 -28 7 -31 16 -3 8 -10 12 -16 9 -5 -3 -10 1
-10 9 0 9 5 16 10 16 6 0 10 7 10 15 0 8 7 15 15 15 8 0 15 5 15 10 0 6 11 10
25 10 16 0 25 6 25 15 0 9 -9 15 -24 15 -14 0 -31 -7 -40 -15 -8 -8 -19 -15
-25 -15 -6 0 -11 -7 -11 -15 0 -8 -7 -15 -16 -15 -8 0 -12 -4 -9 -10 13 -20
-17 -9 -39 15 -15 16 -34 25 -54 25 -17 0 -32 5 -34 11 -2 6 -21 11 -43 11
-22 0 -41 -5 -43 -11 -5 -14 -219 -15 -224 -1 -1 5 -31 13 -65 16 -35 4 -63
11 -63 15 0 5 -11 9 -25 9 -14 0 -25 6 -25 13 0 7 -11 21 -25 31 -14 10 -25
25 -25 33 0 8 -11 24 -25 37 -18 17 -25 34 -25 60 0 32 3 36 25 36 14 0 25 5
25 10 0 6 11 10 24 10 33 0 57 10 50 21 -9 16 -74 11 -74 -6 0 -9 -9 -15 -25
-15 -14 0 -25 -4 -25 -10 0 -19 -48 -11 -55 10 -3 11 -11 20 -16 20 -5 0 -9 7
-9 15 0 8 -4 15 -10 15 -5 0 -10 11 -10 25 0 14 5 25 10 25 6 0 10 7 10 15 0
8 7 15 15 15 8 0 15 7 15 15 0 8 5 15 10 15 6 0 10 4 10 9 0 5 -11 4 -25 -2
-14 -7 -25 -18 -25 -24 0 -7 -4 -13 -10 -13 -5 0 -10 -7 -10 -15 0 -8 -7 -15
-15 -15 -8 0 -15 -4 -15 -10 0 -5 -16 -10 -35 -10 -24 0 -35 -5 -35 -15 0 -8
-5 -15 -11 -15 -15 0 -35 -22 -43 -48 -4 -12 -12 -22 -17 -22 -5 0 -9 -16 -9
-36 0 -19 -7 -42 -15 -50 -10 -11 -15 -36 -15 -80 0 -63 0 -64 -27 -65 -16 -1
-31 -1 -35 0 -5 0 -8 -6 -8 -14 0 -8 -9 -15 -20 -15 -12 0 -31 -11 -44 -25
-13 -14 -33 -25 -45 -25 -12 0 -21 -6 -21 -15 0 -8 -7 -15 -15 -15 -8 0 -15
-4 -15 -10 0 -5 -5 -10 -10 -10 -13 0 -23 -8 -99 -81 -32 -31 -62 -66 -66 -78
-3 -11 -11 -21 -16 -21 -5 0 -9 -7 -9 -15 0 -8 -7 -15 -15 -15 -8 0 -15 -4
-15 -10 0 -17 -88 -12 -110 7 -17 15 -20 30 -20 115 0 98 0 98 25 98 14 0 25
4 25 9 0 5 12 12 26 15 14 4 39 20 55 37 29 30 29 31 13 62 -31 58 -34 67 -34
83 0 18 23 44 39 44 6 0 11 6 11 14 0 8 6 17 13 20 10 5 10 7 0 12 -7 3 -13
12 -13 20 0 8 -7 14 -15 14 -9 0 -15 9 -15 25 0 14 -4 25 -10 25 -5 0 -10 7
-10 15 0 11 12 15 50 15 28 0 50 4 50 9 0 5 11 12 25 15 14 4 25 11 25 16 0 6
7 10 15 10 8 0 15 7 15 16 0 8 5 12 10 9 6 -3 10 5 10 18 0 14 7 27 15 31 10
3 15 19 15 46 0 25 5 40 13 40 9 0 8 3 -2 9 -11 7 -11 10 0 15 11 5 11 7 2 12
-7 3 -13 16 -13 28 0 26 -32 56 -60 56 -26 0 -25 6 5 34 14 13 25 33 25 45 0
11 4 21 10 21 5 0 12 11 16 25 3 14 10 25 15 25 5 0 9 8 9 19 0 10 7 24 15 31
8 7 15 21 15 31 0 11 5 19 10 19 6 0 10 7 10 15 0 8 7 15 15 15 9 0 15 -9 15
-25 0 -16 6 -25 15 -25 8 0 15 -4 15 -10 0 -15 39 -12 56 4 8 8 14 24 14 34 0
11 5 22 11 24 6 2 13 41 16 91 l6 87 -132 0 c-131 0 -131 0 -131 -23 0 -25
-32 -62 -43 -50 -12 11 -8 23 8 23 9 0 15 9 15 25 0 16 -6 25 -15 25 -8 0 -15
-7 -15 -15z m-175 -385 c-3 -5 -10 -10 -16 -10 -5 0 -9 5 -9 10 0 6 7 10 16
10 8 0 12 -4 9 -10z m-135 -50 c0 -5 7 -10 15 -10 8 0 15 -5 15 -11 0 -7 -9
-9 -22 -6 -12 3 -30 1 -41 -5 -15 -8 -18 -7 -11 4 6 11 5 11 -9 -1 -15 -12
-17 -11 -17 3 0 9 8 16 21 16 11 0 17 5 14 10 -3 6 3 10 14 10 12 0 21 -4 21
-10z m-105 -50 c3 -5 1 -10 -4 -10 -6 0 -11 5 -11 10 0 6 2 10 4 10 3 0 8 -4
11 -10z m895 -294 c0 -13 -5 -26 -11 -28 -19 -6 0 -48 22 -48 14 0 19 7 19 29
0 17 5 33 10 36 6 3 10 1 10 -4 0 -6 6 -11 13 -11 6 0 17 -11 23 -23 11 -25 4
-37 -28 -50 -10 -3 -18 -11 -18 -17 0 -14 67 -12 73 3 5 15 47 -29 47 -50 0
-7 5 -13 10 -13 6 0 10 -7 10 -15 0 -8 7 -15 16 -15 12 0 15 -6 11 -21 -4 -15
0 -23 14 -26 10 -3 19 -9 19 -13 0 -4 16 -11 35 -14 19 -4 35 -11 35 -16 0 -6
18 -10 40 -10 22 0 40 -4 40 -9 0 -15 132 -23 234 -16 53 4 93 11 90 16 -3 5
2 9 11 9 9 0 14 -4 11 -9 -3 -5 10 -12 29 -15 19 -4 35 -11 35 -16 0 -6 11
-10 25 -10 20 0 25 -5 25 -25 0 -14 -4 -25 -10 -25 -16 0 -11 -20 6 -27 10 -4
20 0 26 10 11 21 48 23 48 3 0 -8 7 -16 15 -20 9 -3 15 -18 15 -36 0 -29 -5
-38 -37 -75 -7 -7 -13 -18 -13 -24 0 -6 -11 -11 -25 -11 -14 0 -25 -4 -25 -10
0 -5 -13 -10 -30 -10 -17 0 -30 5 -30 13 0 8 -3 8 -9 -2 -8 -13 -15 -13 -50
-1 -35 11 -40 16 -35 37 5 17 2 23 -10 23 -9 0 -16 -8 -16 -19 0 -30 -17 -34
-24 -6 -5 18 -13 25 -31 25 -16 0 -25 6 -25 15 0 8 -4 15 -10 15 -19 0 -10
-25 15 -44 28 -21 32 -36 11 -36 -8 0 -16 -6 -19 -12 -2 -7 -8 -9 -13 -5 -5 4
-2 12 5 16 18 11 5 31 -20 31 -14 0 -19 7 -19 30 0 22 -4 28 -15 24 -8 -3 -13
-10 -12 -16 4 -19 -34 -17 -54 3 -19 19 -26 34 -11 25 4 -2 14 0 22 5 13 8 13
10 0 19 -21 14 -30 12 -30 -5 0 -8 -5 -15 -11 -15 -5 0 -7 -4 -4 -10 3 -5 -3
-10 -14 -10 -25 0 -28 15 -5 24 14 5 9 14 -25 46 -22 21 -41 42 -41 45 0 11
-28 35 -42 35 -7 0 -18 -11 -24 -24 -9 -20 -7 -26 12 -42 23 -19 34 -51 13
-39 -7 5 -9 -2 -7 -19 2 -15 8 -25 13 -24 6 2 9 6 7 11 -1 4 2 7 7 7 9 0 21
-47 21 -81 0 -15 -7 -19 -36 -19 -21 0 -33 4 -29 10 3 6 1 10 -4 10 -6 0 -11
16 -11 36 0 25 -4 33 -12 28 -10 -6 -10 -4 0 7 14 16 16 59 2 59 -5 0 -10 -4
-10 -10 0 -5 -7 -10 -15 -10 -9 0 -15 9 -15 25 0 16 -6 25 -15 25 -8 0 -15 7
-15 15 0 8 -4 15 -10 15 -15 0 -12 -87 3 -94 10 -5 10 -7 0 -12 -7 -3 -13 -21
-13 -39 0 -20 -6 -35 -15 -39 -8 -3 -15 -15 -15 -27 0 -35 -29 -48 -103 -49
-37 0 -75 -4 -85 -9 -9 -6 -34 -13 -54 -16 -21 -3 -38 -10 -38 -15 0 -6 -15
-10 -32 -10 -18 0 -42 -7 -52 -15 -28 -22 -231 -21 -252 0 -9 8 -33 15 -55 15
-35 0 -39 3 -39 25 0 14 4 25 10 25 5 0 12 11 16 25 3 14 12 25 20 25 8 0 14
4 14 8 0 5 23 32 50 61 38 40 55 51 70 46 12 -4 20 -2 20 5 0 6 -4 8 -10 5 -5
-3 -10 -1 -10 5 0 14 40 49 58 50 6 0 12 5 12 10 0 6 5 10 11 10 7 0 17 6 23
14 6 8 22 16 36 18 14 2 36 13 50 26 14 12 35 22 47 22 13 0 23 4 23 9 0 6 15
11 33 13 27 2 33 8 35 30 3 22 -2 30 -22 40 -29 13 -36 52 -11 62 9 3 15 19
15 41 0 19 5 35 10 35 6 0 10 9 10 20 0 18 47 78 63 79 4 1 7 -10 7 -23z
m-997 -336 c-3 -11 -9 -20 -14 -20 -5 0 -9 -9 -9 -19 0 -10 -7 -21 -15 -25 -8
-3 -15 -17 -15 -31 0 -14 -4 -25 -10 -25 -5 0 -10 -12 -10 -26 0 -15 -10 -36
-24 -48 -21 -18 -31 -43 -39 -96 -4 -24 -18 -41 -28 -35 -11 8 -12 -65 0 -84
6 -9 11 3 16 38 7 54 25 70 25 24 0 -20 7 -31 25 -40 14 -6 25 -7 25 -2 0 5 6
9 14 9 14 0 14 13 0 73 -4 17 -2 27 5 27 6 0 11 -5 11 -12 0 -6 3 -8 7 -4 12
12 12 40 0 55 -10 12 -9 13 2 6 11 -6 13 -4 8 8 -3 9 -2 19 3 22 6 4 10 17 10
31 0 13 5 24 10 24 6 0 10 -7 10 -15 0 -8 4 -15 9 -15 5 0 8 -16 6 -35 -2 -19
1 -37 6 -41 5 -3 7 -10 4 -15 -10 -15 7 -10 27 8 11 9 18 11 18 5 0 -7 -6 -12
-12 -12 -10 0 -9 -3 1 -9 9 -6 10 -11 2 -15 -6 -4 -11 -20 -11 -37 0 -16 -6
-29 -12 -30 -10 0 -10 -2 0 -6 6 -2 12 -13 12 -24 0 -16 5 -18 25 -13 34 8 33
-17 -1 -33 -22 -10 -25 -10 -20 3 4 9 -1 14 -14 14 -18 0 -20 -7 -20 -55 0
-30 -4 -55 -10 -55 -5 0 -10 -11 -10 -25 0 -16 -6 -25 -15 -25 -8 0 -15 -7
-15 -15 0 -31 27 -14 40 25 7 22 19 40 27 40 19 0 17 -66 -2 -74 -8 -3 -15
-17 -15 -31 0 -20 -5 -25 -25 -25 -20 0 -25 5 -25 25 0 27 -14 34 -23 11 -4
-9 -14 -12 -26 -9 -21 5 -29 23 -11 23 6 0 10 7 10 15 0 21 -20 19 -22 -2 0
-10 -2 -22 -3 -28 -2 -5 -3 -14 -4 -18 0 -5 -7 -5 -13 0 -7 4 -23 6 -35 5 -12
-2 -26 4 -31 15 -6 10 -14 14 -19 10 -4 -5 0 -14 10 -21 9 -7 17 -23 17 -35 0
-12 4 -19 10 -16 6 3 10 -1 10 -9 0 -10 9 -16 25 -16 18 0 26 -7 31 -25 4 -16
13 -25 25 -25 21 0 26 -25 7 -34 -10 -5 -10 -7 0 -12 6 -3 12 -13 12 -22 0
-12 -3 -13 -12 -4 -8 8 -16 6 -30 -10 -10 -12 -21 -18 -25 -14 -4 3 2 13 13
20 10 8 16 17 13 21 -4 3 -18 -5 -32 -19 -15 -14 -38 -26 -52 -26 -16 0 -25
-6 -25 -15 0 -9 -9 -15 -25 -15 -14 0 -25 -4 -25 -10 0 -5 -15 -10 -33 -10
-18 0 -38 -5 -45 -12 -9 -9 -13 -7 -18 5 -4 10 4 26 22 42 18 16 24 29 18 33
-14 9 -16 72 -3 72 5 0 9 -4 9 -10 0 -5 7 -7 16 -3 11 4 12 9 5 16 -14 14 -14
107 -1 107 6 0 10 21 10 48 0 26 7 56 15 66 8 11 15 30 15 43 0 13 5 23 10 23
6 0 10 -8 10 -17 0 -14 2 -15 13 -4 10 11 10 14 0 18 -20 7 -16 71 6 94 11 12
16 29 14 43 -3 13 0 27 6 30 6 4 11 20 11 37 0 19 5 29 15 29 8 0 15 8 15 17
0 21 18 80 36 116 8 16 14 38 14 48 0 11 5 17 10 14 9 -6 14 8 11 28 0 4 8 7
19 7 12 0 25 10 32 25 13 28 29 25 21 -5z m77 20 c0 -5 -4 -10 -10 -10 -5 0
-10 5 -10 10 0 6 5 10 10 10 6 0 10 -4 10 -10z m-20 -56 c0 -8 -4 -14 -10 -14
-5 0 -10 9 -10 21 0 11 5 17 10 14 6 -3 10 -13 10 -21z m-30 -24 c0 -5 -4 -10
-10 -10 -5 0 -10 5 -10 10 0 6 5 10 10 10 6 0 10 -4 10 -10z m1180 -150 c0 -5
-7 -10 -16 -10 -8 0 -12 5 -9 10 3 6 10 10 16 10 5 0 9 -4 9 -10z m493 -54
c21 -16 22 -36 2 -36 -9 0 -12 6 -9 15 4 9 0 15 -10 15 -9 0 -16 5 -16 10 0
13 11 12 33 -4z m-63 -27 c0 -5 -4 -9 -10 -9 -5 0 -10 7 -10 16 0 8 5 12 10 9
6 -3 10 -10 10 -16z m-410 1 c0 -5 -4 -10 -10 -10 -5 0 -10 5 -10 10 0 6 5 10
10 10 6 0 10 -4 10 -10z m-1130 -20 c0 -5 -5 -10 -11 -10 -5 0 -7 5 -4 10 3 6
8 10 11 10 2 0 4 -4 4 -10z m35 -130 c-3 -5 -11 -10 -16 -10 -6 0 -7 5 -4 10
3 6 11 10 16 10 6 0 7 -4 4 -10z m-25 -30 c0 -5 -4 -10 -10 -10 -5 0 -10 5
-10 10 0 6 5 10 10 10 6 0 10 -4 10 -10z m50 -50 c0 -5 -4 -10 -10 -10 -5 0
-10 5 -10 10 0 6 5 10 10 10 6 0 10 -4 10 -10z m160 0 c0 -5 7 -10 15 -10 22
0 105 -86 105 -109 0 -20 -5 -21 -109 -21 -60 0 -116 3 -125 6 -18 7 -23 94
-6 94 6 0 10 7 10 15 0 8 7 15 15 15 8 0 15 5 15 10 0 6 18 10 40 10 22 0 40
-4 40 -10z m-160 -47 c0 -2 -8 -13 -19 -24 -18 -20 -19 -20 -23 9 -4 25 -1 28
19 24 13 -2 23 -6 23 -9z m640 -7 c0 -7 7 -19 15 -26 8 -7 15 -28 15 -47 0
-21 -6 -36 -15 -39 -8 -4 -15 -12 -15 -20 0 -33 -38 -54 -100 -54 -33 0 -60 4
-60 9 0 5 -16 12 -35 15 -19 4 -35 11 -35 16 0 6 -15 10 -34 10 -31 0 -53 19
-48 43 1 4 -2 7 -8 7 -5 0 -10 18 -10 40 0 36 3 40 25 40 16 0 25 -6 25 -15 0
-9 9 -15 24 -15 14 0 31 7 40 15 8 8 28 15 45 15 17 0 31 5 31 10 0 6 30 10
70 10 53 0 70 -3 70 -14z m-834 -100 c16 -17 19 -36 4 -36 -5 0 -10 7 -10 15
0 8 -7 15 -15 15 -8 0 -15 5 -15 10 0 15 19 12 36 -4z m1799 -146 c4 -6 11 -8
16 -5 5 4 9 1 9 -4 0 -6 7 -11 15 -11 8 0 15 -4 15 -10 0 -5 7 -10 15 -10 8 0
15 -7 15 -15 0 -11 -11 -15 -40 -15 -22 0 -40 -4 -40 -10 0 -5 -21 -10 -46
-10 -27 0 -51 -6 -60 -15 -9 -8 -29 -15 -45 -15 -16 0 -29 -4 -29 -10 0 -5
-11 -12 -25 -16 -14 -3 -25 -10 -25 -15 0 -5 -5 -9 -10 -9 -10 0 -22 -8 -55
-37 -7 -7 -18 -13 -24 -13 -6 0 -11 -7 -11 -15 0 -9 -9 -15 -22 -15 -12 0 -19
-2 -16 -5 3 -3 -22 -33 -55 -66 -57 -58 -60 -62 -58 -110 1 -46 -1 -49 -24
-49 -16 0 -25 6 -25 15 0 8 5 15 10 15 6 0 10 11 10 25 0 14 -4 25 -10 25 -5
0 -10 -11 -10 -25 0 -16 -6 -25 -15 -25 -8 0 -15 -7 -15 -15 0 -8 -7 -15 -16
-15 -8 0 -12 -4 -9 -10 3 -5 -1 -10 -9 -10 -9 0 -16 -7 -16 -15 0 -11 -11 -15
-41 -15 l-40 0 3 38 c3 35 5 37 41 40 39 3 43 8 27 32 -7 11 -10 11 -10 2 0
-10 -13 -11 -52 -6 -64 8 -65 9 -44 29 9 9 16 23 16 31 0 9 11 14 35 14 19 0
35 5 35 10 0 6 7 10 15 10 8 0 15 7 15 15 0 8 7 15 15 15 8 0 15 7 15 15 0 8
6 15 13 15 7 0 23 11 35 25 12 14 29 25 38 25 8 0 12 5 9 10 -3 6 1 10 9 10 9
0 16 7 16 15 0 8 5 15 11 15 7 0 22 11 35 25 13 14 30 25 39 25 8 0 15 5 15
10 0 6 6 10 14 10 8 0 16 7 20 15 3 8 14 15 25 15 11 0 21 5 23 12 2 6 19 11
38 11 19 0 36 -5 38 -11 2 -7 17 -12 33 -12 22 0 40 11 67 40 37 39 82 53 97
30z m-1820 -80 c-3 -5 3 -10 14 -10 25 0 29 -35 6 -44 -8 -3 -15 -12 -15 -21
0 -18 -17 -20 -23 -2 -2 6 -8 8 -13 4 -5 -4 -2 -12 5 -16 16 -10 6 -31 -15
-31 -11 0 -13 -7 -8 -26 5 -19 4 -25 -5 -20 -7 5 -11 0 -11 -13 0 -12 -4 -21
-10 -21 -5 0 -12 -11 -16 -25 -3 -14 -12 -25 -19 -25 -8 0 -11 -8 -8 -19 3
-13 -2 -20 -19 -25 -29 -8 -64 -76 -45 -88 9 -6 9 -8 0 -8 -8 0 -13 -13 -13
-30 0 -16 -4 -30 -10 -30 -5 0 -10 7 -10 15 0 8 -7 15 -15 15 -8 0 -15 5 -15
10 0 6 -11 10 -25 10 -20 0 -25 -5 -25 -25 0 -16 -6 -25 -15 -25 -8 0 -15 -4
-15 -10 0 -5 -9 -10 -20 -10 -11 0 -20 -7 -20 -15 0 -9 -9 -15 -25 -15 -14 0
-25 -4 -25 -10 0 -5 -7 -10 -15 -10 -11 0 -15 12 -15 45 0 39 3 45 25 51 25 6
36 26 13 22 -8 -2 -14 10 -16 30 -3 25 1 32 15 33 16 0 16 1 -2 8 -11 5 -21 4
-23 0 -5 -12 -32 -11 -32 1 0 6 -13 10 -30 10 -20 0 -30 -5 -30 -15 0 -8 -6
-15 -12 -16 -7 0 -3 -5 10 -12 18 -8 25 -8 32 2 6 10 12 9 28 -7 12 -12 16
-22 11 -24 -6 -2 -13 -38 -16 -81 -5 -66 -4 -77 10 -77 8 0 18 -6 21 -12 5
-10 7 -10 12 0 3 6 12 12 20 12 8 0 14 5 14 10 0 6 9 10 20 10 11 0 23 7 26
15 4 8 12 15 19 15 7 0 18 7 25 15 7 8 21 15 31 15 20 0 36 -19 23 -29 -22
-16 -44 -86 -44 -141 0 -33 -4 -60 -9 -60 -4 0 -11 -18 -14 -40 -4 -35 -25
-70 -41 -70 -3 0 -6 47 -6 105 0 63 4 105 10 105 6 0 10 5 10 10 0 6 -11 10
-25 10 -14 0 -25 -4 -25 -10 0 -5 -22 -10 -50 -10 -50 0 -50 0 -51 33 -1 17
-1 40 0 50 4 36 -40 10 -66 -41 -7 -13 -13 -35 -13 -48 0 -15 -6 -24 -15 -24
-9 0 -15 -9 -15 -25 0 -14 -4 -25 -10 -25 -5 0 -10 7 -10 15 0 8 -4 15 -10 15
-5 0 -10 11 -10 25 0 14 5 25 10 25 6 0 10 9 10 20 0 19 6 29 38 65 6 7 12 21
12 29 0 9 4 16 10 16 5 0 12 11 16 25 3 14 10 25 15 25 5 0 9 11 9 25 0 20 -5
25 -25 25 -23 0 -25 -4 -25 -41 l0 -41 -37 4 c-22 2 -38 -2 -41 -10 -6 -20
-22 -14 -22 8 0 19 6 29 38 65 6 7 12 18 12 24 0 6 7 11 15 11 9 0 15 9 15 25
0 14 5 25 10 25 6 0 10 6 10 14 0 7 9 16 21 19 13 4 18 10 13 18 -4 8 -3 10 4
5 7 -4 12 -1 12 8 0 9 5 16 11 16 18 0 59 37 51 46 -4 5 1 2 11 -5 16 -13 19
-12 24 7 3 12 16 25 29 28 13 3 24 10 24 15 0 5 11 9 24 9 13 0 26 7 30 15 3
8 15 15 26 15 11 0 20 5 20 10 0 6 11 10 25 10 14 0 28 7 31 15 4 8 17 15 30
15 13 0 24 5 24 10 0 6 13 10 30 10 16 0 35 7 42 15 15 16 103 21 93 5z m1925
-30 c0 -5 7 -10 15 -10 8 0 15 -6 15 -12 0 -9 -21 -14 -63 -16 -34 -1 -63 -7
-65 -12 -2 -6 -30 -10 -63 -10 -32 0 -59 -4 -59 -10 0 -5 -18 -13 -40 -16 -22
-4 -40 -10 -40 -15 0 -5 -11 -9 -25 -9 -14 0 -25 5 -25 10 0 6 7 10 15 10 8 0
15 7 15 15 0 9 9 15 25 15 14 0 25 5 25 10 0 6 11 10 24 10 14 0 31 7 40 15 9
10 34 15 70 15 30 0 58 5 61 10 3 6 22 10 41 10 19 0 34 -4 34 -10z m-940
-186 c0 -12 -7 -25 -16 -28 -23 -9 -64 4 -64 20 0 8 -6 14 -12 14 -26 0 17 20
45 20 15 0 27 6 27 13 0 22 20 -16 20 -39z m610 36 c0 -5 -7 -10 -15 -10 -8 0
-15 -5 -15 -11 0 -6 -7 -18 -16 -26 -13 -14 -17 -14 -24 -2 -8 11 -11 12 -22
1 -11 -11 -10 -13 1 -10 21 4 25 -27 6 -45 -18 -19 -19 -24 -3 -41 10 -11 15
-11 25 0 7 7 13 17 13 22 0 14 36 52 49 52 6 0 11 -4 11 -9 0 -6 9 -9 20 -8
11 1 20 4 20 8 0 4 -9 11 -20 14 -28 9 -25 25 5 25 14 0 25 4 25 10 0 5 11 12
25 16 14 3 25 9 25 13 0 4 11 8 25 9 25 2 34 -11 15 -23 -23 -14 5 -25 65 -25
35 0 67 -4 70 -10 3 -5 -1 -10 -9 -10 -9 0 -16 -4 -16 -9 0 -10 35 -21 71 -21
15 0 32 -7 39 -15 7 -8 19 -15 26 -15 8 0 14 -4 14 -10 0 -13 -32 0 -48 19
-10 14 -11 13 -5 -4 9 -26 32 -49 51 -52 21 -3 65 -25 74 -38 11 -14 10 -37
-1 -30 -5 3 -13 0 -16 -6 -8 -12 29 -51 39 -42 3 4 6 1 6 -5 0 -7 7 -12 17
-12 14 0 15 -2 1 -17 -19 -22 -13 -49 8 -33 21 18 34 2 27 -32 -4 -23 -2 -33
11 -40 20 -11 12 -28 -15 -28 -14 0 -19 -7 -19 -25 0 -14 5 -25 10 -25 6 0 10
-9 10 -21 0 -11 7 -27 15 -35 17 -18 20 -57 5 -85 -14 -25 -40 -25 -40 1 0 11
5 20 10 20 6 0 10 9 10 20 0 11 -4 20 -10 20 -5 0 -10 18 -10 40 0 22 -4 40
-9 40 -5 0 -12 11 -15 25 -4 14 -11 25 -16 25 -6 0 -10 9 -10 21 0 11 4 18 8
15 4 -2 9 6 10 20 1 13 -3 24 -8 24 -6 0 -10 -7 -10 -16 0 -22 -23 -12 -26 11
-2 11 2 25 7 31 8 9 5 11 -10 7 -16 -4 -21 -1 -21 15 0 23 -25 52 -45 52 -10
0 -12 -12 -9 -47 3 -27 9 -49 14 -51 6 -2 10 -8 10 -13 0 -14 33 -48 42 -43 4
3 8 -9 8 -26 0 -18 -4 -29 -10 -25 -6 4 -10 -5 -10 -19 0 -30 8 -33 26 -8 12
15 13 11 14 -30 0 -27 -5 -48 -11 -48 -5 0 -7 -4 -4 -10 3 -5 15 -10 26 -10
14 0 19 -7 19 -30 0 -17 -5 -30 -12 -31 -10 0 -10 -2 0 -6 6 -2 12 -17 12 -33
0 -16 6 -30 12 -32 9 -3 8 -9 -4 -21 -10 -10 -14 -25 -11 -39 5 -17 3 -20 -11
-15 -10 4 -22 7 -27 7 -5 0 -8 6 -6 13 1 6 -4 11 -10 10 -7 -2 -13 6 -13 17 0
12 -11 31 -24 43 -13 12 -26 32 -30 45 -4 12 -12 22 -17 22 -5 0 -9 5 -9 11 0
15 -26 39 -44 39 -9 0 -13 7 -11 20 2 11 0 20 -4 20 -5 0 -11 -14 -15 -31 -6
-31 -2 -39 47 -90 15 -15 27 -33 27 -39 0 -5 4 -10 9 -10 5 0 12 -11 15 -25 4
-14 11 -25 16 -25 6 0 10 -5 10 -11 0 -6 11 -20 25 -31 14 -11 25 -30 25 -43
0 -13 6 -26 13 -28 6 -3 0 -6 -15 -6 -14 -1 -33 -3 -40 -6 -16 -6 -58 26 -58
44 0 7 -4 9 -10 6 -5 -3 -10 0 -10 9 0 8 6 16 13 19 7 2 8 8 3 13 -5 5 -11 4
-13 -3 -6 -18 -33 -16 -33 2 0 8 5 15 11 15 5 0 7 5 3 11 -4 8 -9 7 -15 -2
-16 -24 -34 17 -30 64 1 9 -3 17 -8 17 -6 0 -10 -3 -10 -7 6 -37 -18 -44 -41
-14 -7 11 -17 18 -22 15 -4 -3 -8 0 -8 5 0 6 -7 11 -15 11 -8 0 -15 5 -15 10
0 6 -7 10 -15 10 -8 0 -15 7 -15 15 0 11 -11 15 -40 15 -22 0 -40 5 -40 10 0
6 7 10 15 10 8 0 15 7 15 15 0 18 -46 21 -52 3 -2 -6 -12 -9 -21 -5 -10 4 -14
12 -11 22 3 8 2 15 -4 15 -6 0 -12 -6 -15 -12 -3 -10 -9 -10 -28 -1 -13 6 -41
14 -61 18 -21 3 -38 10 -38 14 0 12 -74 -15 -78 -28 -2 -6 8 -11 22 -11 16 0
26 -6 26 -15 0 -8 9 -15 20 -15 17 0 19 -5 14 -25 -4 -17 -2 -25 7 -25 11 0
11 -3 -1 -11 -12 -9 -11 -9 5 -4 44 16 55 17 55 6 0 -6 -6 -11 -14 -11 -15 0
-29 -24 -30 -52 -1 -22 -4 -22 -39 -9 -36 14 -37 14 -37 -4 0 -11 7 -14 25
-11 31 6 33 -13 5 -37 -25 -21 -27 -21 -33 3 -3 11 -10 20 -17 20 -7 0 -14 -9
-17 -20 -3 -11 -10 -20 -16 -20 -6 0 -7 -3 -4 -7 11 -10 -50 -42 -84 -45 -17
-1 -34 -8 -36 -15 -3 -7 -13 -13 -22 -13 -14 0 -14 -2 -1 -10 12 -8 9 -10 -12
-10 -17 0 -40 -12 -60 -32 -32 -31 -33 -32 -36 -10 -2 12 -8 22 -13 22 -5 0
-9 9 -9 20 0 11 -7 20 -15 20 -8 0 -15 7 -15 15 0 8 -4 15 -10 15 -14 0 -12
28 3 33 6 2 9 8 5 12 -4 4 -15 2 -24 -6 -13 -11 -18 -11 -21 -1 -3 6 -17 12
-31 12 -21 0 -24 2 -12 10 12 8 9 10 -12 10 -14 0 -28 -6 -30 -12 -3 -9 -9 -8
-21 4 -23 22 -22 24 18 62 19 19 35 42 35 54 0 13 9 22 25 26 37 9 34 45 -5
52 -16 4 -27 10 -24 15 3 5 -2 9 -10 9 -9 0 -16 7 -16 16 0 8 -5 12 -10 9 -6
-4 -7 -11 -4 -17 5 -8 1 -9 -10 -5 -11 4 -19 1 -23 -11 -7 -17 -15 -28 -40
-57 -7 -7 -13 -18 -13 -23 0 -6 -7 -12 -15 -16 -8 -3 -15 -15 -15 -26 0 -11
-4 -20 -10 -20 -5 0 -10 -7 -10 -15 0 -8 -5 -15 -10 -15 -6 0 -13 -7 -17 -16
-9 -23 -48 -64 -62 -64 -6 0 -16 11 -21 25 -9 24 -50 37 -50 15 0 -5 -4 -10
-10 -10 -5 0 -10 11 -10 25 0 26 -25 35 -33 13 -3 -9 -14 -2 -32 17 -16 17
-30 29 -32 28 -11 -9 -24 1 -29 23 -5 19 -9 22 -15 12 -6 -10 -9 -10 -9 0 0 6
-12 12 -28 12 -15 0 -33 5 -40 12 -9 9 -12 9 -12 0 0 -7 -4 -12 -10 -12 -5 0
-10 9 -10 20 0 10 -6 23 -14 27 -8 4 -15 17 -17 28 -5 25 -49 34 -49 11 0 -18
-16 -21 -26 -5 -3 6 -1 15 6 19 13 8 -2 22 -28 26 -20 3 -29 16 -15 21 7 2 9
11 6 19 -4 12 -7 12 -18 -2 -15 -21 -45 -12 -52 16 -3 13 -14 20 -29 20 -28 0
-31 -17 -6 -36 15 -12 14 -13 -15 -14 -18 0 -33 4 -33 10 0 5 -12 13 -27 17
l-28 6 35 15 c29 13 31 16 15 20 -10 2 -21 -1 -23 -7 -2 -6 -14 -11 -27 -11
-18 0 -23 -5 -20 -19 2 -13 -4 -21 -18 -25 -12 -3 -23 -1 -25 4 -2 6 -19 10
-37 10 -40 0 -65 8 -65 22 0 5 5 6 10 3 6 -3 10 1 10 9 0 11 10 16 28 17 15 0
21 3 14 6 -17 7 -5 23 19 23 10 0 19 4 19 10 0 5 11 12 25 16 14 3 25 10 25
15 0 5 9 9 20 9 11 0 23 7 26 15 4 8 12 15 20 15 8 0 14 5 14 10 0 6 11 10 25
10 14 0 25 6 25 13 0 7 14 14 32 15 18 2 41 13 54 27 44 48 78 27 88 -56 4
-30 7 -62 7 -72 0 -10 9 -23 20 -30 10 -6 19 -20 19 -29 0 -14 9 -18 38 -19
58 -2 86 2 93 13 4 7 14 8 25 3 17 -8 17 -9 -3 -12 -24 -5 -30 -17 -14 -28 10
-6 41 21 41 36 0 5 7 9 15 9 8 0 15 -6 15 -14 0 -21 20 -30 33 -17 9 9 8 11
-6 5 -13 -5 -16 -2 -11 10 3 9 11 16 18 17 32 2 61 11 64 19 2 6 26 10 52 10
27 0 51 4 54 9 3 4 33 11 66 15 34 4 58 11 55 17 -4 5 12 9 35 9 24 0 48 7 56
15 9 8 31 15 50 15 21 0 33 4 29 10 -4 6 5 10 19 10 15 0 26 6 26 13 0 7 11
14 25 15 14 1 25 -2 25 -7 0 -21 32 -18 54 4 14 14 30 25 36 25 5 0 10 7 10
15 0 9 9 15 25 15 14 0 25 5 25 10 0 6 11 10 25 10 14 0 25 -4 25 -10 0 -5 11
-10 25 -10 18 0 26 7 31 25 4 14 4 29 0 32 -3 3 -1 12 5 20 6 7 8 13 3 13 -5
0 -2 5 6 10 12 7 12 12 2 22 -14 14 -16 32 -2 23 6 -3 10 0 10 7 0 8 10 22 21
32 17 14 23 15 30 5 4 -7 11 -10 15 -6 4 4 2 13 -4 19 -19 19 -14 28 13 28 14
0 25 4 25 9 0 5 11 12 25 15 14 4 25 11 25 16 0 6 11 10 25 10 14 0 25 -4 25
-10z m-770 -40 c0 -11 -4 -20 -10 -20 -5 0 -10 -13 -10 -30 0 -25 -4 -30 -25
-30 -16 0 -25 6 -25 15 0 8 -7 15 -15 15 -8 0 -15 7 -15 15 0 8 -4 15 -10 15
-5 0 -10 5 -10 10 0 6 20 10 44 10 25 0 48 5 51 10 10 17 25 11 25 -10z m1210
-40 c0 -5 -7 -10 -15 -10 -8 0 -15 5 -15 10 0 6 7 10 15 10 8 0 15 -4 15 -10z
m-1640 -174 c0 -37 6 -76 15 -92 8 -16 15 -39 15 -51 0 -13 5 -23 10 -23 24 0
7 -27 -24 -38 -36 -13 -66 -7 -66 13 0 7 -7 15 -15 19 -9 3 -15 19 -15 41 0
19 -4 35 -9 35 -5 0 -11 29 -13 65 -3 57 -1 65 15 65 11 0 17 -8 17 -25 0 -14
5 -25 10 -25 6 0 10 -25 10 -55 0 -42 5 -60 20 -75 26 -26 30 -25 30 5 0 14
-4 25 -9 25 -10 0 -24 156 -16 171 16 24 25 3 25 -55z m-1000 -51 c0 -9 -9
-15 -25 -15 -29 0 -34 16 -7 23 30 8 32 7 32 -8z m377 -37 c-3 -8 -6 -5 -6 6
-1 11 2 17 5 13 3 -3 4 -12 1 -19z m-17 -98 c0 -22 -4 -40 -10 -40 -5 0 -10
18 -10 40 0 22 5 40 10 40 6 0 10 -18 10 -40z m-176 -26 c9 -22 8 -24 -9 -18
-8 4 -15 12 -15 20 0 19 16 18 24 -2z m2622 -51 c-10 -10 -19 5 -10 18 6 11 8
11 12 0 2 -7 1 -15 -2 -18z m-2438 5 c-6 -18 -28 -21 -28 -4 0 9 7 16 16 16 9
0 14 -5 12 -12z m52 -29 c0 -5 -7 -9 -15 -9 -15 0 -20 12 -9 23 8 8 24 -1 24
-14z m321 -52 c-13 -13 -26 -3 -16 12 3 6 11 8 17 5 6 -4 6 -10 -1 -17z m-73
-47 c2 -5 15 -10 28 -10 15 0 24 -6 24 -15 0 -8 5 -15 11 -15 6 0 17 -6 25
-14 28 -29 15 -36 -62 -36 -54 0 -80 4 -90 15 -9 8 -26 15 -40 15 -13 0 -24 5
-24 10 0 6 -7 10 -15 10 -8 0 -15 9 -15 21 0 13 -4 18 -12 13 -9 -5 -10 -4 -3
4 20 21 166 23 173 2z m132 3 c0 -10 -20 -40 -20 -31 0 3 -3 13 -6 22 -4 11
-1 16 10 16 9 0 16 -3 16 -7z m719 -7 c9 -11 9 -19 -1 -35 -7 -12 -16 -21 -20
-21 -5 0 -8 -7 -8 -15 0 -8 -7 -15 -15 -15 -9 0 -15 -9 -15 -25 0 -16 -6 -25
-15 -25 -8 0 -15 -7 -15 -15 0 -8 -4 -15 -10 -15 -5 0 -10 -11 -10 -25 0 -25
1 -25 85 -24 92 1 108 -6 121 -55 3 -14 10 -26 15 -26 14 0 11 -17 -6 -34 -8
-8 -15 -19 -15 -25 0 -6 -4 -11 -10 -11 -5 0 -10 -5 -10 -11 0 -11 -25 -39
-35 -39 -4 0 -13 -7 -21 -15 -9 -8 -33 -15 -55 -15 -21 0 -39 -4 -39 -10 0 -5
-7 -10 -15 -10 -8 0 -15 4 -15 9 0 7 -27 15 -87 23 -7 1 -13 5 -13 10 0 4 -11
8 -25 8 -22 0 -25 4 -25 35 0 19 5 35 10 35 6 0 10 8 10 19 0 10 7 24 15 31 8
7 15 19 15 26 0 8 5 14 10 14 6 0 10 8 10 19 0 10 7 24 15 31 8 7 15 21 15 32
0 10 5 16 10 13 6 -3 10 1 10 9 0 9 7 16 15 16 10 0 15 10 15 31 0 16 4 28 9
25 5 -3 12 5 15 19 4 14 11 25 16 25 6 0 10 5 10 10 0 15 23 39 36 40 6 0 17
-6 23 -14z m-1043 -31 c10 -14 29 -25 41 -25 14 0 23 -6 23 -15 0 -10 11 -15
35 -15 19 0 35 -4 35 -9 0 -4 46 -11 102 -13 64 -3 103 -9 106 -17 2 -6 8 -11
14 -11 15 0 40 -29 36 -42 -5 -13 -159 -12 -168 1 -3 5 -26 11 -52 15 -26 4
-50 11 -53 17 -4 5 -17 9 -30 9 -13 0 -25 4 -27 9 -1 6 -19 13 -38 16 -19 3
-36 10 -38 16 -2 5 -15 9 -28 9 -13 0 -24 4 -24 9 0 5 -9 13 -21 16 -28 9 -59
37 -53 47 3 4 31 8 63 8 50 0 61 -3 77 -25z m414 14 c0 -10 -24 -39 -32 -39
-2 0 -5 11 -6 25 -1 19 3 25 18 25 11 0 20 -5 20 -11z m1899 -51 c-1 -18 0
-39 2 -47 2 -7 -2 -16 -8 -18 -9 -3 -13 10 -13 46 0 28 5 51 10 51 6 0 10 -15
9 -32z m-639 -30 c0 -4 -9 -8 -20 -8 -11 0 -20 4 -20 8 0 4 9 8 20 8 11 0 20
-4 20 -8z m-1230 -28 c0 -5 -4 -10 -10 -10 -5 0 -10 5 -10 10 0 6 5 10 10 10
6 0 10 -4 10 -10z m1200 -49 c0 -6 -4 -11 -10 -11 -5 0 -10 -7 -10 -15 0 -21
-23 -19 -37 3 -10 17 -8 18 13 14 17 -3 24 0 24 12 0 9 -5 16 -11 16 -5 0 -7
5 -4 10 7 11 35 -12 35 -29z m310 29 c0 -5 7 -10 15 -10 8 0 15 -5 15 -11 0
-6 7 -17 15 -25 8 -9 15 -22 15 -30 0 -8 -7 -17 -15 -20 -8 -4 -15 -15 -15
-25 0 -10 -7 -19 -15 -19 -8 0 -15 -7 -15 -15 0 -8 -4 -15 -10 -15 -5 0 -10
-22 -10 -48 0 -43 3 -49 33 -67 46 -27 56 -43 43 -71 -6 -13 -14 -24 -18 -24
-5 0 -8 -11 -8 -25 0 -14 5 -25 10 -25 6 0 10 -11 10 -25 0 -14 -4 -25 -10
-25 -5 0 -10 -9 -10 -19 0 -10 -7 -21 -15 -25 -8 -3 -15 -15 -15 -26 0 -11 -4
-20 -10 -20 -5 0 -10 -9 -10 -19 0 -11 -7 -26 -15 -35 -8 -8 -15 -24 -15 -35
0 -16 -6 -21 -25 -21 l-25 0 0 134 c0 74 4 136 9 138 4 2 11 48 15 103 3 55
11 102 16 103 6 2 10 44 10 93 0 53 4 89 10 89 6 0 10 7 10 15 0 8 7 15 15 15
8 0 15 -4 15 -10z m380 0 c0 -5 -4 -10 -10 -10 -5 0 -10 5 -10 10 0 6 5 10 10
10 6 0 10 -4 10 -10z m-2450 -30 c0 -5 11 -10 24 -10 13 0 26 -7 30 -15 3 -8
15 -15 26 -15 11 0 20 -4 20 -10 0 -5 11 -10 25 -10 14 0 28 -6 31 -13 2 -7
19 -14 37 -15 17 -2 34 -7 35 -12 2 -6 14 -10 26 -10 12 0 31 -7 42 -15 10 -8
36 -15 57 -15 20 0 37 -4 37 -9 0 -6 88 -20 158 -24 6 0 12 -4 12 -9 0 -11 67
-10 88 1 34 17 91 20 106 5 8 -8 20 -14 26 -14 6 0 18 -6 25 -12 35 -31 45
-38 59 -38 25 0 28 -18 4 -26 -37 -11 -142 -5 -150 9 -5 10 -38 14 -115 16
-59 1 -109 6 -111 12 -5 12 -132 12 -132 -1 0 -5 11 -10 25 -10 l25 0 0 -205
c0 -176 2 -205 15 -205 11 0 15 -12 15 -46 0 -32 3 -43 12 -38 7 4 8 3 4 -4
-10 -17 -114 -15 -132 2 -8 8 -14 19 -14 25 0 6 -4 11 -9 11 -5 0 -13 10 -16
21 -9 29 -191 209 -210 209 -9 0 -14 4 -10 9 3 5 -4 12 -15 16 -11 3 -20 11
-20 16 0 5 -7 9 -15 9 -8 0 -15 7 -15 15 0 8 -5 15 -11 15 -27 0 -39 30 -39
99 0 38 5 73 10 76 6 3 10 33 10 65 0 50 3 60 20 65 11 4 18 11 14 16 -3 5
-10 7 -15 4 -5 -4 -9 12 -9 34 0 23 5 41 10 41 6 0 10 -4 10 -10z m2350 -30
c0 -16 -4 -30 -10 -30 -5 0 -10 14 -10 30 0 17 5 30 10 30 6 0 10 -13 10 -30z
m80 10 c0 -5 -4 -10 -10 -10 -5 0 -10 5 -10 10 0 6 5 10 10 10 6 0 10 -4 10
-10z m-2482 -65 c-4 -58 -18 -59 -18 0 0 25 5 45 10 45 6 0 9 -20 8 -45z
m1737 35 c3 -5 1 -10 -4 -10 -6 0 -11 5 -11 10 0 6 2 10 4 10 3 0 8 -4 11 -10z
m-25 -25 c0 -8 -4 -15 -10 -15 -5 0 -10 7 -10 15 0 8 5 15 10 15 6 0 10 -7 10
-15z m95 -5 c-3 -5 3 -10 14 -10 16 0 21 -6 21 -24 0 -14 -4 -28 -10 -31 -5
-3 -10 -15 -10 -26 0 -23 -8 -24 -32 -3 -16 16 -18 16 -24 0 -9 -24 -24 -19
-24 9 0 25 10 30 52 26 23 -3 31 15 13 32 -17 18 -20 37 -4 37 5 0 7 -4 4 -10z
m-145 -70 c0 -5 -4 -10 -10 -10 -5 0 -10 5 -10 10 0 6 5 10 10 10 6 0 10 -4
10 -10z m-298 -32 c-9 -9 -15 -9 -24 0 -9 9 -7 12 12 12 19 0 21 -3 12 -12z
m-1392 -67 c0 -38 -3 -76 -6 -85 -8 -20 -34 -21 -34 -1 0 8 5 15 10 15 6 0 10
30 10 70 0 40 4 70 10 70 6 0 10 -30 10 -69z m1720 45 c0 -8 -7 -16 -15 -20
-10 -3 -15 -19 -15 -46 0 -22 -4 -40 -10 -40 -5 0 -10 -18 -10 -40 0 -25 -5
-43 -13 -46 -9 -3 -14 -25 -16 -60 -3 -83 -17 -94 -118 -94 -46 0 -83 -4 -83
-9 0 -5 -18 -11 -40 -15 -22 -3 -40 -11 -40 -16 0 -6 -10 -10 -23 -10 -31 0
-77 -22 -77 -37 0 -7 -10 -13 -21 -13 -12 0 -32 -11 -45 -25 -13 -14 -32 -25
-44 -25 -11 0 -20 -7 -20 -15 0 -8 -5 -15 -11 -15 -14 0 -39 -25 -39 -39 0 -6
-5 -11 -11 -11 -6 0 -17 -7 -26 -15 -11 -11 -27 -14 -61 -9 -26 3 -48 10 -50
15 -2 5 -18 9 -37 9 -18 0 -49 7 -68 15 -24 10 -69 15 -131 15 -103 0 -106 2
-106 66 0 24 5 34 15 34 8 0 15 4 15 10 0 5 11 12 25 16 14 3 25 10 25 15 0 5
7 9 15 9 19 0 65 47 65 66 0 8 5 12 10 9 6 -3 10 3 10 14 0 11 7 26 15 35 11
10 15 36 15 85 0 41 4 71 10 71 6 0 10 7 10 15 0 13 23 15 145 15 95 0 145 -4
145 -11 0 -5 5 -7 10 -4 6 3 10 1 10 -4 0 -7 48 -11 139 -11 111 0 143 3 155
15 8 8 32 15 55 15 23 0 41 5 41 10 0 6 11 10 24 10 14 0 31 7 40 15 8 8 24
15 35 15 12 0 21 4 21 10 0 5 11 12 25 16 14 3 25 10 25 15 0 5 7 9 15 9 8 0
15 -6 15 -14z m42 -28 c-10 -22 -11 -21 -11 12 -1 26 2 31 11 22 8 -8 8 -17 0
-34z m95 0 c-6 -4 -22 -8 -34 -8 -14 0 -23 -6 -23 -16 0 -11 6 -13 19 -9 27 8
38 -15 16 -32 -11 -7 -13 -13 -7 -13 8 0 12 -23 12 -70 0 -40 -4 -70 -10 -70
-6 0 -10 -92 -10 -255 l0 -255 -25 0 c-14 0 -25 -5 -25 -11 0 -5 10 -9 23 -7
21 3 22 -1 25 -64 3 -63 -8 -89 -22 -53 -3 8 -14 15 -24 15 -10 0 -23 5 -29
11 -6 6 -46 11 -89 13 l-79 1 -3 48 c-2 33 -7 47 -18 47 -7 0 -14 5 -14 11 0
5 -4 7 -10 4 -5 -3 -10 -1 -10 4 0 6 -12 11 -26 11 -26 0 -26 1 -20 58 4 31 9
85 12 120 4 48 9 62 22 63 15 1 15 2 0 6 -36 9 -20 33 22 33 22 0 40 -4 40
-10 0 -5 5 -10 11 -10 5 0 8 4 4 9 -3 5 7 11 22 13 24 2 29 8 31 36 2 18 10
36 18 39 10 4 14 23 14 69 0 44 4 64 13 65 8 0 8 2 -2 6 -9 4 -10 8 -2 12 9 6
18 36 20 69 1 7 10 20 21 29 11 10 20 23 20 30 0 7 5 12 11 11 6 -2 13 6 15
16 1 11 10 23 18 28 9 5 16 17 16 27 0 18 2 18 35 3 23 -11 31 -19 22 -24z
m-1153 -38 l42 0 3 -46 c1 -28 -4 -55 -13 -70 -9 -13 -16 -37 -16 -54 0 -16
-4 -30 -9 -30 -5 0 -12 -11 -15 -24 -3 -14 -15 -28 -26 -31 -11 -3 -20 -11
-20 -16 0 -5 -13 -9 -30 -9 -16 0 -30 -4 -30 -10 0 -5 -4 -10 -10 -10 -6 0
-10 52 -10 135 0 74 4 135 9 135 5 0 11 10 14 21 5 18 11 21 38 15 17 -3 50
-6 73 -6z m-728 -177 c-3 -8 -12 -11 -18 -8 -7 4 -6 1 2 -7 8 -7 16 -20 18
-28 2 -8 9 -18 15 -22 6 -4 12 -57 15 -135 2 -70 8 -129 13 -131 5 -2 9 -30 9
-62 0 -53 -2 -58 -25 -64 -18 -5 -25 -13 -25 -31 0 -16 -6 -25 -15 -25 -16 0
-19 -19 -9 -70 5 -22 9 -28 15 -18 6 9 9 7 9 -9 0 -13 -5 -23 -11 -23 -7 0
-18 -8 -25 -17 -13 -17 -13 -17 -14 0 0 11 -8 17 -24 17 -13 0 -26 4 -28 10
-1 5 -38 10 -80 12 -80 2 -113 10 -84 21 9 4 16 14 16 23 0 8 10 25 23 36 12
11 16 17 10 13 -8 -4 -13 0 -13 10 0 8 7 18 15 21 8 4 15 12 15 20 0 8 5 14
10 14 6 0 10 11 10 24 0 14 7 31 15 40 8 8 15 24 15 34 0 11 4 22 9 24 6 2 13
19 16 38 3 19 10 36 16 38 5 2 9 18 9 35 0 18 7 41 15 51 8 11 15 35 15 53 0
18 5 33 10 33 6 0 10 25 10 55 0 42 3 55 15 55 8 0 15 8 15 18 0 10 3 22 8 26
9 10 16 -50 8 -71z m589 -343 c-3 -6 1 -10 9 -10 9 0 16 5 16 10 0 16 199 13
215 -3 7 -8 35 -15 62 -16 26 -1 50 -6 51 -11 2 -6 10 -10 17 -10 7 0 15 -6
18 -12 3 -10 8 -10 21 1 9 8 20 10 24 6 4 -4 1 -10 -5 -12 -15 -5 -17 -33 -3
-33 6 0 10 5 10 10 0 6 7 10 15 10 8 0 15 -4 15 -10 0 -5 22 -10 49 -10 39 0
50 4 53 17 2 13 9 8 26 -20 28 -49 28 -67 0 -67 -17 0 -19 3 -9 9 9 6 10 11 2
15 -7 5 -14 -4 -17 -23 -7 -31 -27 -41 -38 -18 -5 10 -7 10 -12 0 -3 -7 -12
-13 -20 -13 -8 0 -14 -10 -14 -24 0 -37 10 -56 31 -56 23 0 25 -15 4 -24 -20
-7 -19 -26 1 -26 31 0 7 -24 -25 -26 -19 -1 -36 -6 -40 -12 -3 -5 -44 -10 -91
-11 -47 -1 -86 -6 -88 -12 -2 -5 -18 -9 -36 -9 -18 0 -41 -7 -52 -15 -12 -9
-43 -14 -86 -15 -43 0 -68 -4 -70 -12 -5 -14 -82 -12 -110 3 -12 6 -18 6 -18
-1 0 -5 -18 -10 -40 -10 -22 0 -40 5 -40 10 0 6 -11 10 -24 10 -18 0 -25 6
-27 28 -7 52 0 72 28 72 15 0 23 5 20 13 -2 6 3 26 11 42 9 17 17 39 19 50 2
10 9 23 16 27 9 6 9 10 1 16 -6 4 -14 24 -18 45 -6 30 -4 37 9 37 8 0 15 5 15
10 0 6 -7 10 -15 10 -8 0 -15 -4 -15 -10 0 -5 -11 -10 -25 -10 -16 0 -25 6
-25 15 0 8 7 15 15 15 8 0 15 5 15 10 0 6 -7 10 -15 10 -8 0 -15 -4 -15 -10 0
-5 -9 -10 -20 -10 -14 0 -20 7 -20 23 0 20 5 24 33 24 17 0 37 -7 43 -15 8
-11 15 -12 30 -4 10 6 13 12 7 12 -7 0 -13 6 -13 14 0 11 18 14 75 15 48 0 74
-3 70 -9z m-205 -135 c0 -8 -4 -15 -10 -15 -5 0 -10 7 -10 15 0 8 5 15 10 15
6 0 10 -7 10 -15z m-330 -85 c0 -11 5 -20 10 -20 6 0 10 5 10 11 0 7 34 9 100
7 55 -1 100 -5 100 -9 0 -6 -4 -7 -58 -10 -37 -2 -44 -9 -33 -28 6 -10 11 -9
24 3 22 23 27 20 27 -13 0 -33 -17 -51 -26 -27 -11 29 -24 16 -24 -23 0 -24 5
-41 14 -44 14 -6 11 -47 -4 -47 -16 0 -43 -80 -37 -115 4 -25 2 -35 -8 -35 -7
0 -15 -7 -19 -15 -3 -8 -14 -15 -25 -15 -11 0 -22 -4 -25 -8 -8 -13 -126 -15
-126 -3 0 6 -17 11 -38 11 -21 0 -44 6 -51 12 -11 10 -13 10 -7 1 5 -9 -2 -13
-22 -13 -17 0 -32 6 -36 15 -3 8 -14 15 -25 15 -11 0 -23 5 -26 10 -3 6 1 10
9 10 9 0 16 5 16 10 0 6 6 10 14 10 8 0 21 6 28 13 23 22 66 40 82 34 16 -6
40 16 29 26 -3 4 12 7 35 7 23 0 42 4 42 10 0 5 11 12 25 16 14 3 25 10 25 15
0 5 7 9 15 9 10 0 15 10 15 30 0 17 -5 30 -11 30 -6 0 -8 9 -4 20 4 11 2 20
-4 20 -6 0 -11 7 -11 15 0 8 -4 15 -10 15 -5 0 -10 16 -10 35 0 19 5 35 10 35
6 0 10 -9 10 -20z m330 -4 c0 -8 -4 -18 -10 -21 -5 -3 -10 3 -10 14 0 12 5 21
10 21 6 0 10 -6 10 -14z m850 -36 c0 -6 -7 -10 -15 -10 -8 0 -15 -9 -15 -21 0
-11 -4 -17 -10 -14 -5 3 -10 16 -10 28 0 17 6 23 25 25 14 1 25 -3 25 -8z m54
-22 c5 -10 7 -10 12 0 8 18 84 16 84 -2 0 -8 -8 -16 -17 -19 -14 -3 -11 -7 12
-17 17 -7 24 -14 18 -17 -15 -5 -18 -63 -4 -63 14 0 23 -32 12 -43 -7 -7 -12
-5 -17 6 -8 21 -24 22 -24 2 0 -8 5 -15 10 -15 6 0 10 -4 10 -9 0 -6 -19 -11
-42 -13 -40 -3 -43 -5 -40 -30 1 -16 -2 -28 -8 -28 -14 0 -40 -25 -40 -39 0
-19 -29 -12 -41 10 -9 18 -8 24 5 31 9 5 16 20 16 33 0 13 6 25 13 28 8 3 6 9
-7 19 -19 15 -14 44 5 33 5 -4 9 -1 9 4 0 6 -9 11 -19 11 -30 0 -43 58 -18 85
6 8 18 21 25 30 15 18 38 20 46 3z m176 -28 c0 -5 -4 -10 -9 -10 -6 0 -13 5
-16 10 -3 6 1 10 9 10 9 0 16 -4 16 -10z m-1125 -100 c-3 -5 -10 -10 -16 -10
-5 0 -9 5 -9 10 0 6 7 10 16 10 8 0 12 -4 9 -10z m1115 0 c0 -5 -4 -10 -10
-10 -5 0 -10 5 -10 10 0 6 5 10 10 10 6 0 10 -4 10 -10z m30 -100 c0 -5 7 -10
15 -10 8 0 15 5 15 10 0 6 9 10 20 10 11 0 20 -4 20 -10 0 -5 -4 -10 -10 -10
-5 0 -10 -7 -10 -15 0 -18 11 -19 45 -3 28 13 30 12 40 -21 5 -16 4 -21 -4
-17 -6 4 -11 0 -11 -8 0 -9 9 -16 20 -16 11 0 20 5 20 10 0 6 15 10 33 10 24
0 28 -3 17 -10 -13 -8 -12 -10 3 -10 9 0 25 -9 34 -19 9 -11 20 -18 25 -15 4
3 8 0 8 -5 0 -6 -11 -11 -25 -11 -14 0 -25 5 -25 10 0 6 -12 10 -27 10 -19 0
-24 -3 -15 -9 22 -14 -8 -20 -76 -15 -35 2 -63 0 -67 -6 -8 -13 -45 -13 -45 0
0 6 -45 10 -115 10 -70 0 -115 4 -115 10 0 6 7 10 15 10 8 0 15 7 15 15 0 20
-26 19 -34 -1 -3 -8 -10 -12 -16 -9 -15 9 -12 25 5 25 8 0 15 5 15 10 0 6 7
10 15 10 8 0 15 9 15 21 0 11 5 17 10 14 6 -3 10 -1 10 4 0 6 11 11 25 11 14
0 28 6 31 14 6 16 124 22 124 6z m-1280 -80 c0 -5 -2 -10 -4 -10 -3 0 -8 5
-11 10 -3 6 -1 10 4 10 6 0 11 -4 11 -10z m1000 0 c0 -5 -4 -10 -10 -10 -5 0
-10 5 -10 10 0 6 5 10 10 10 6 0 10 -4 10 -10z"/>
<path d="M2510 3740 c0 -5 5 -10 10 -10 6 0 10 5 10 10 0 6 -4 10 -10 10 -5 0
-10 -4 -10 -10z"/>
<path d="M2205 3360 c-3 -5 -1 -10 4 -10 6 0 11 5 11 10 0 6 -2 10 -4 10 -3 0
-8 -4 -11 -10z"/>
<path d="M3040 3336 c0 -9 7 -16 16 -16 9 0 14 5 12 12 -6 18 -28 21 -28 4z"/>
<path d="M3200 3284 c0 -8 5 -12 10 -9 6 4 8 11 5 16 -9 14 -15 11 -15 -7z"/>
<path d="M2660 3255 c0 -8 5 -15 10 -15 6 0 10 7 10 15 0 8 -4 15 -10 15 -5 0
-10 -7 -10 -15z"/>
<path d="M1560 3177 c0 -14 5 -29 10 -32 7 -4 8 3 4 22 -9 38 -14 42 -14 10z"/>
<path d="M1540 3000 c0 -5 5 -10 10 -10 6 0 10 5 10 10 0 6 -4 10 -10 10 -5 0
-10 -4 -10 -10z"/>
<path d="M1510 2941 c0 -23 -5 -31 -17 -31 -13 0 -14 -3 -6 -11 9 -9 16 -8 27
4 18 18 21 53 6 62 -6 4 -10 -7 -10 -24z"/>
<path d="M1410 2880 c0 -5 5 -10 10 -10 6 0 10 5 10 10 0 6 -4 10 -10 10 -5 0
-10 -4 -10 -10z"/>
<path d="M1310 2825 c0 -22 -6 -38 -15 -41 -23 -9 -18 -24 9 -24 13 0 26 -7
30 -15 3 -8 12 -12 21 -9 11 5 17 -2 21 -25 7 -33 34 -43 34 -13 0 18 -49 62
-70 62 -8 0 -12 11 -12 40 -1 3 2 17 6 33 5 20 3 27 -9 27 -11 0 -15 -10 -15
-35z"/>
<path d="M1302 2693 c3 -17 58 -38 58 -22 0 5 -7 9 -15 9 -8 0 -15 7 -15 15 0
8 -7 15 -16 15 -9 0 -14 -7 -12 -17z"/>
<path d="M1261 2644 c0 -11 3 -14 6 -6 3 7 2 16 -1 19 -3 4 -6 -2 -5 -13z"/>
<path d="M1280 2644 c0 -8 5 -12 10 -9 6 4 8 11 5 16 -9 14 -15 11 -15 -7z"/>
<path d="M1300 2620 c0 -5 9 -10 20 -10 11 0 20 5 20 10 0 6 -9 10 -20 10 -11
0 -20 -4 -20 -10z"/>
<path d="M1255 2600 c-8 -12 20 -24 35 -15 6 3 8 11 5 16 -8 12 -32 12 -40 -1z"/>
<path d="M2976 2509 c-11 -10 -21 -17 -24 -14 -2 2 -19 -12 -37 -31 -18 -18
-37 -34 -44 -34 -6 0 -11 -5 -11 -11 0 -6 -16 -25 -35 -43 -19 -19 -35 -38
-35 -45 0 -6 -7 -11 -15 -11 -8 0 -15 -9 -15 -20 0 -11 7 -20 15 -20 8 0 15 7
15 16 0 8 5 12 10 9 6 -3 10 -1 10 5 0 6 6 18 13 25 29 33 37 45 37 53 0 6 11
13 25 16 14 4 25 11 25 16 0 6 8 10 17 10 9 0 14 3 11 6 -8 7 28 44 42 44 6 0
10 4 10 10 0 5 11 12 25 16 14 3 25 10 25 15 0 16 -45 8 -64 -12z"/>
<path d="M1385 2401 c-3 -5 -1 -12 5 -16 5 -3 10 1 10 9 0 18 -6 21 -15 7z"/>
<path d="M1150 2390 c0 -5 5 -10 10 -10 6 0 10 5 10 10 0 6 -4 10 -10 10 -5 0
-10 -4 -10 -10z"/>
<path d="M1200 2360 c0 -5 7 -7 15 -4 8 4 15 8 15 10 0 2 -7 4 -15 4 -8 0 -15
-4 -15 -10z"/>
<path d="M1150 2340 c0 -5 7 -7 15 -4 8 4 15 8 15 10 0 2 -7 4 -15 4 -8 0 -15
-4 -15 -10z"/>
<path d="M1257 2330 c3 -11 9 -17 14 -14 14 8 10 34 -5 34 -9 0 -12 -7 -9 -20z"/>
<path d="M975 2310 c-3 -5 -1 -10 4 -10 6 0 11 5 11 10 0 6 -2 10 -4 10 -3 0
-8 -4 -11 -10z"/>
<path d="M1200 2310 c0 -5 7 -10 15 -10 8 0 15 5 15 10 0 6 -7 10 -15 10 -8 0
-15 -4 -15 -10z"/>
<path d="M1155 2289 c-4 -6 -5 -13 -2 -16 7 -7 27 6 27 18 0 12 -17 12 -25 -2z"/>
<path d="M1235 2290 c-3 -5 -1 -10 4 -10 6 0 11 5 11 10 0 6 -2 10 -4 10 -3 0
-8 -4 -11 -10z"/>
<path d="M1050 2275 c0 -8 2 -15 4 -15 2 0 6 7 10 15 3 8 1 15 -4 15 -6 0 -10
-7 -10 -15z"/>
<path d="M1170 2260 c0 -5 7 -10 15 -10 8 0 15 5 15 10 0 6 -7 10 -15 10 -8 0
-15 -4 -15 -10z"/>
<path d="M1262 2220 c0 -14 2 -19 5 -12 2 6 2 18 0 25 -3 6 -5 1 -5 -13z"/>
<path d="M1126 2215 c4 -8 10 -15 15 -15 5 0 9 7 9 15 0 8 -7 15 -15 15 -9 0
-12 -6 -9 -15z"/>
<path d="M1200 2210 c0 -5 5 -10 10 -10 6 0 10 5 10 10 0 6 -4 10 -10 10 -5 0
-10 -4 -10 -10z"/>
<path d="M3170 2340 c0 -5 5 -10 10 -10 6 0 10 5 10 10 0 6 -4 10 -10 10 -5 0
-10 -4 -10 -10z"/>
<path d="M3215 2310 c4 -6 11 -8 16 -5 14 9 11 15 -7 15 -8 0 -12 -5 -9 -10z"/>
<path d="M2970 2284 c0 -8 5 -12 10 -9 6 3 10 10 10 16 0 5 -4 9 -10 9 -5 0
-10 -7 -10 -16z"/>
<path d="M2580 2030 c0 -5 12 -10 26 -10 14 0 23 4 19 10 -3 6 -15 10 -26 10
-10 0 -19 -4 -19 -10z"/>
<path d="M1435 1930 c-3 -5 -1 -10 4 -10 6 0 11 5 11 10 0 6 -2 10 -4 10 -3 0
-8 -4 -11 -10z"/>
<path d="M2348 1903 c7 -3 16 -2 19 1 4 3 -2 6 -13 5 -11 0 -14 -3 -6 -6z"/>
<path d="M2578 1903 c7 -3 16 -2 19 1 4 3 -2 6 -13 5 -11 0 -14 -3 -6 -6z"/>
<path d="M3350 1856 c0 -9 5 -16 10 -16 6 0 10 4 10 9 0 6 -4 13 -10 16 -5 3
-10 -1 -10 -9z"/>
<path d="M1765 1830 c3 -5 8 -10 11 -10 2 0 4 5 4 10 0 6 -5 10 -11 10 -5 0
-7 -4 -4 -10z"/>
<path d="M2250 1830 c0 -5 5 -10 10 -10 6 0 10 5 10 10 0 6 -4 10 -10 10 -5 0
-10 -4 -10 -10z"/>
<path d="M3100 1824 c0 -8 5 -12 10 -9 6 4 8 11 5 16 -9 14 -15 11 -15 -7z"/>
<path d="M3300 1830 c0 -5 9 -10 20 -10 11 0 20 5 20 10 0 6 -9 10 -20 10 -11
0 -20 -4 -20 -10z"/>
<path d="M2300 1800 c0 -5 5 -10 10 -10 6 0 10 5 10 10 0 6 -4 10 -10 10 -5 0
-10 -4 -10 -10z"/>
<path d="M1820 1769 c0 -5 5 -7 10 -4 6 3 10 8 10 11 0 2 -4 4 -10 4 -5 0 -10
-5 -10 -11z"/>
<path d="M2250 1750 c0 -5 4 -10 9 -10 6 0 13 5 16 10 3 6 -1 10 -9 10 -9 0
-16 -4 -16 -10z"/>
<path d="M2865 1750 c-3 -5 1 -10 9 -10 9 0 16 5 16 10 0 6 -4 10 -9 10 -6 0
-13 -4 -16 -10z"/>
<path d="M3530 1741 c0 -12 5 -21 10 -21 6 0 10 6 10 14 0 8 -4 18 -10 21 -5
3 -10 -3 -10 -14z"/>
<path d="M3250 1731 c0 -6 5 -13 10 -16 6 -3 10 1 10 9 0 9 -4 16 -10 16 -5 0
-10 -4 -10 -9z"/>
<path d="M3370 1700 c0 -5 7 -10 15 -10 8 0 15 5 15 10 0 6 -7 10 -15 10 -8 0
-15 -4 -15 -10z"/>
<path d="M2580 1650 c0 -5 7 -10 15 -10 8 0 15 5 15 10 0 6 -7 10 -15 10 -8 0
-15 -4 -15 -10z"/>
<path d="M2150 1610 c0 -11 5 -20 10 -20 6 0 10 9 10 20 0 11 -4 20 -10 20 -5
0 -10 -9 -10 -20z"/>
<path d="M2480 1606 c0 -15 4 -25 9 -22 10 7 9 31 -2 42 -4 4 -7 -5 -7 -20z"/>
<path d="M2560 1620 c0 -5 5 -10 10 -10 6 0 10 5 10 10 0 6 -4 10 -10 10 -5 0
-10 -4 -10 -10z"/>
<path d="M3430 1620 c0 -5 7 -10 16 -10 8 0 12 5 9 10 -3 6 -10 10 -16 10 -5
0 -9 -4 -9 -10z"/>
<path d="M2535 1600 c-3 -5 -1 -10 4 -10 6 0 11 5 11 10 0 6 -2 10 -4 10 -3 0
-8 -4 -11 -10z"/>
<path d="M2610 1585 c0 -14 5 -25 10 -25 6 0 10 -9 10 -19 0 -26 16 -35 24
-14 4 11 1 22 -8 29 -9 6 -16 21 -16 33 0 11 -4 21 -10 21 -5 0 -10 -11 -10
-25z"/>
<path d="M2560 1570 c0 -5 5 -10 10 -10 6 0 10 5 10 10 0 6 -4 10 -10 10 -5 0
-10 -4 -10 -10z"/>
<path d="M3480 1550 c0 -5 5 -10 11 -10 5 0 7 5 4 10 -3 6 -8 10 -11 10 -2 0
-4 -4 -4 -10z"/>
<path d="M2555 1520 c-3 -5 1 -10 9 -10 9 0 16 5 16 10 0 6 -4 10 -9 10 -6 0
-13 -4 -16 -10z"/>
<path d="M2617 1487 c-11 -29 -9 -43 4 -30 6 6 9 19 7 29 -3 18 -4 18 -11 1z"/>
<path d="M1868 1933 c7 -3 16 -2 19 1 4 3 -2 6 -13 5 -11 0 -14 -3 -6 -6z"/>
<path d="M2371 1496 c-6 -7 -22 -13 -36 -13 -32 0 -55 -25 -61 -65 -5 -26 0
-40 20 -63 14 -16 26 -24 26 -17 0 7 14 12 38 12 36 0 72 25 72 50 0 6 5 10
10 10 21 0 9 42 -20 70 -35 35 -34 34 -49 16z m29 -60 c0 -9 -8 -12 -25 -8
-14 2 -25 8 -25 13 0 5 11 9 25 9 14 0 25 -6 25 -14z"/>
<path d="M1265 1470 c3 -5 15 -10 26 -10 10 0 19 -4 19 -10 0 -5 11 -12 25
-16 14 -3 25 -10 25 -15 0 -5 16 -9 35 -9 19 0 35 5 35 10 0 6 -11 10 -25 10
-14 0 -25 4 -25 9 0 5 -11 12 -25 15 -14 4 -25 11 -25 16 0 6 -16 10 -36 10
-21 0 -33 -4 -29 -10z"/>
<path d="M1442 1403 c-25 -10 0 -23 44 -23 24 0 44 -4 44 -9 0 -12 36 -20 60
-14 34 9 22 23 -19 23 -22 0 -41 4 -43 9 -4 10 -68 21 -86 14z"/>
<path d="M2760 560 c0 -11 5 -20 10 -20 6 0 10 9 10 20 0 11 -4 20 -10 20 -5
0 -10 -9 -10 -20z"/>
<path d="M1100 830 c0 -5 5 -10 10 -10 6 0 10 5 10 10 0 6 -4 10 -10 10 -5 0
-10 -4 -10 -10z"/>
<path d="M1673 733 c9 -2 23 -2 30 0 6 3 -1 5 -18 5 -16 0 -22 -2 -12 -5z"/>
<path d="M2035 730 c3 -5 13 -10 21 -10 8 0 14 5 14 10 0 6 -9 10 -21 10 -11
0 -17 -4 -14 -10z"/>
<path d="M2070 700 c0 -5 4 -10 9 -10 6 0 13 5 16 10 3 6 -1 10 -9 10 -9 0
-16 -4 -16 -10z"/>
<path d="M1765 680 c-3 -5 3 -10 14 -10 12 0 21 5 21 10 0 6 -6 10 -14 10 -8
0 -18 -4 -21 -10z"/>
<path d="M1200 320 c0 -5 7 -10 15 -10 8 0 15 5 15 10 0 6 -7 10 -15 10 -8 0
-15 -4 -15 -10z"/>
<path d="M1180 269 c0 -5 5 -7 10 -4 6 3 10 8 10 11 0 2 -4 4 -10 4 -5 0 -10
-5 -10 -11z"/>
<path d="M978 244 c-5 -4 -8 -16 -8 -28 0 -14 3 -17 11 -9 6 6 9 19 7 28 -1 9
-6 13 -10 9z"/>
<path d="M2435 450 c-3 -5 1 -10 10 -10 9 0 13 5 10 10 -3 6 -8 10 -10 10 -2
0 -7 -4 -10 -10z"/>
<path d="M2840 3820 c0 -5 16 -10 35 -10 19 0 35 5 35 10 0 6 -16 10 -35 10
-19 0 -35 -4 -35 -10z"/>
<path d="M1020 1370 c0 -22 -4 -40 -10 -40 -5 0 -10 -15 -10 -34 0 -19 5 -38
10 -41 6 -4 10 8 10 30 0 20 7 43 15 51 8 9 15 29 15 45 0 19 -5 29 -15 29
-11 0 -15 -11 -15 -40z"/>
<path d="M970 1215 c0 -19 -4 -35 -10 -35 -5 0 -10 -11 -10 -25 0 -14 -7 -28
-15 -31 -9 -4 -15 -19 -15 -39 0 -18 -4 -35 -9 -37 -15 -5 -17 -40 -3 -45 7
-3 12 5 12 21 0 14 4 26 10 26 5 0 12 16 16 35 3 19 10 35 15 35 5 0 9 12 9
26 0 14 7 32 15 40 8 9 15 26 15 40 0 15 -6 24 -15 24 -10 0 -15 -11 -15 -35z"/>
<path d="M870 974 c0 -14 -7 -32 -15 -40 -8 -9 -15 -26 -15 -40 0 -13 -4 -24
-10 -24 -5 0 -10 -11 -10 -25 0 -16 -6 -25 -15 -25 -8 0 -15 -5 -15 -11 0 -17
-23 -35 -53 -43 -15 -3 -27 -11 -27 -16 0 -6 -16 -10 -35 -10 -24 0 -35 -5
-35 -15 0 -8 -7 -15 -15 -15 -8 0 -15 -4 -15 -10 0 -5 -11 -10 -25 -10 -16 0
-25 -6 -25 -15 0 -8 -9 -15 -20 -15 -11 0 -20 -4 -20 -10 0 -5 -5 -10 -10 -10
-6 0 -21 -11 -34 -25 -13 -14 -28 -25 -35 -25 -6 0 -11 -7 -11 -15 0 -8 -9
-15 -19 -15 -11 0 -23 -9 -27 -22 -3 -12 -22 -36 -40 -54 -19 -17 -34 -36 -34
-43 0 -6 -4 -11 -9 -11 -5 0 -13 -10 -17 -22 -4 -13 -12 -27 -18 -31 -8 -6 -8
-10 2 -14 6 -2 12 -9 12 -15 0 -13 21 -32 43 -41 9 -3 17 -11 17 -17 0 -6 41
-10 109 -10 84 0 113 3 125 15 8 8 31 15 51 15 24 0 44 8 63 25 15 14 32 25
39 25 7 0 13 7 13 16 0 11 -6 14 -22 8 -13 -3 -24 -11 -26 -15 -2 -5 -10 -9
-18 -9 -8 0 -14 -7 -14 -15 0 -11 -12 -15 -51 -15 -31 0 -48 -4 -44 -10 4 -6
-32 -10 -99 -10 -64 0 -106 4 -106 10 0 6 -11 10 -25 10 -16 0 -25 6 -25 15 0
8 -4 15 -9 15 -5 0 -4 11 2 25 7 14 15 25 20 25 4 0 7 11 7 25 0 14 5 25 11
25 6 0 17 6 25 14 8 8 14 19 14 25 0 6 7 11 15 11 8 0 15 6 15 13 0 8 11 20
25 27 14 7 25 19 25 27 0 7 5 13 11 13 6 0 17 6 24 13 34 30 45 37 57 37 7 0
25 11 40 25 15 14 36 25 48 25 11 0 20 4 20 9 0 5 14 12 30 16 17 4 30 11 30
16 0 5 9 9 20 9 11 0 20 -4 20 -10 0 -5 -4 -10 -10 -10 -5 0 -10 -11 -10 -25
0 -14 -4 -25 -9 -25 -5 0 -12 -14 -16 -30 -4 -17 -11 -30 -16 -30 -12 0 -12
-37 0 -44 5 -3 12 5 15 19 4 14 11 25 16 25 6 0 10 11 10 24 0 13 7 26 15 30
8 3 15 15 15 26 0 11 5 20 10 20 6 0 10 11 10 25 0 14 7 28 15 31 8 4 15 17
15 30 0 13 5 24 10 24 6 0 10 11 10 25 0 16 6 25 15 25 10 0 15 11 15 35 0 19
5 35 10 35 6 0 10 14 10 30 0 17 -4 30 -10 30 -5 0 -10 -12 -10 -26z"/>
<path d="M640 655 c0 -8 -7 -15 -15 -15 -9 0 -15 -9 -15 -25 0 -14 -4 -25 -10
-25 -5 0 -10 -9 -10 -20 0 -11 -7 -23 -15 -26 -11 -5 -15 -22 -15 -70 0 -50 3
-64 15 -64 12 0 15 13 15 60 0 33 4 60 9 60 5 0 12 14 16 30 4 17 11 30 16 30
5 0 9 9 9 21 0 11 4 18 9 15 11 -7 23 22 15 35 -8 14 -24 11 -24 -6z"/>
<path d="M3780 615 c0 -16 6 -25 15 -25 9 0 15 -9 15 -25 0 -14 5 -25 10 -25
6 0 10 -11 10 -25 0 -14 7 -28 15 -31 8 -4 15 -15 15 -25 0 -25 17 -24 25 1 5
17 15 20 60 20 30 0 57 -4 60 -10 3 -5 46 -10 96 -10 49 0 89 -4 89 -9 0 -5
23 -12 50 -16 28 -4 50 -11 50 -16 0 -5 11 -9 25 -9 16 0 25 -6 25 -15 0 -8 7
-15 15 -15 11 0 15 -12 15 -50 0 -36 -4 -50 -14 -50 -8 0 -16 -4 -18 -9 -1 -5
-21 -11 -43 -15 -22 -3 -41 -5 -42 -6 -2 0 -3 -4 -3 -10 0 -16 89 -12 106 4 8
8 14 19 14 24 0 6 7 12 15 16 10 4 15 20 15 51 0 33 -4 45 -15 45 -8 0 -15 7
-15 15 0 8 -7 15 -15 15 -8 0 -15 5 -15 10 0 6 -9 10 -20 10 -11 0 -23 7 -26
15 -4 10 -20 15 -44 15 -21 0 -40 4 -42 9 -1 5 -43 12 -93 16 -49 3 -91 11
-93 16 -2 5 -39 9 -83 9 -73 0 -79 2 -79 20 0 11 -7 23 -15 26 -8 4 -15 17
-15 30 0 13 -4 24 -10 24 -5 0 -10 7 -10 15 0 8 -7 15 -15 15 -9 0 -15 -9 -15
-25z"/>
<path d="M787 470 c-9 -11 -17 -25 -17 -30 0 -6 -6 -10 -14 -10 -18 0 -28 -27
-14 -36 7 -4 14 -2 16 4 2 7 10 12 18 12 8 0 14 7 14 15 0 8 4 15 9 15 13 0
23 32 13 42 -4 4 -15 -1 -25 -12z"/>
<path d="M3290 245 c0 -11 12 -15 45 -15 48 0 60 14 23 24 -40 10 -68 7 -68
-9z"/>
<path d="M3385 220 c-4 -6 18 -10 59 -10 37 0 66 4 66 10 0 6 -26 10 -59 10
-33 0 -63 -4 -66 -10z"/>
<path d="M4120 220 c-10 -7 9 -10 63 -10 50 0 76 4 72 10 -8 13 -115 13 -135
0z"/>
<path d="M3553 202 c-13 -2 -23 -8 -23 -13 0 -5 118 -9 290 -9 180 0 290 4
290 10 0 9 -503 20 -557 12z"/>
</g>
</svg>
