 <svg xmlns="http://www.w3.org/2000/svg" id="configuration" enable-background="new 0 0 512 512" viewBox="0 0 512 512" width="512px" height="512px" xmlns:xml="http://www.w3.org/XML/1998/namespace" xml:space="preserve" version="1.1"><path d="M 276.808 511 h -41.634 c -15.59 0 -28.807 -12.67 -29.465 -28.245 l -2.185 -51.823 c -11.779 -3.528 -23.169 -8.257 -34.046 -14.131 l -38.226 35.129 c -5.422 4.983 -12.505 7.725 -19.942 7.725 c -7.917 0 -15.327 -3.05 -20.864 -8.589 l -29.502 -29.502 c -11.027 -11.025 -11.413 -29.334 -0.86 -40.81 l 35.124 -38.209 c -5.882 -10.907 -10.616 -22.311 -14.154 -34.104 l -51.806 -2.173 C 13.672 305.614 1 292.399 1 276.808 v -41.624 c 0 -15.59 12.67 -28.808 28.245 -29.465 l 51.823 -2.185 c 3.53 -11.782 8.26 -23.172 14.131 -34.046 L 60.07 131.263 c -10.546 -11.477 -10.161 -29.781 0.859 -40.807 l 29.51 -29.507 c 5.535 -5.537 12.942 -8.587 20.856 -8.587 c 7.44 0 14.526 2.744 19.948 7.727 l 38.208 35.127 c 10.908 -5.888 22.312 -10.621 34.107 -14.154 l 2.173 -51.813 C 206.386 13.672 219.601 1 235.192 1 h 41.644 c 15.59 0 28.807 12.67 29.465 28.245 l 2.185 51.825 c 11.791 3.536 23.18 8.263 34.043 14.129 l 38.228 -35.129 c 5.422 -4.982 12.505 -7.725 19.943 -7.725 c 7.917 0 15.326 3.05 20.863 8.589 l 29.498 29.503 c 11.022 11.027 11.405 29.333 0.855 40.809 l -35.124 38.209 c 5.882 10.907 10.616 22.312 14.154 34.104 l 51.806 2.173 c 15.576 0.653 28.248 13.868 28.248 29.46 v 41.625 c 0 15.59 -12.672 28.809 -28.245 29.467 l -51.818 2.189 c -3.535 11.793 -8.263 23.185 -14.126 34.046 l 35.129 38.234 c 10.546 11.483 10.158 29.789 -0.865 40.81 l -29.502 29.502 c -5.537 5.539 -12.946 8.589 -20.859 8.589 h -0.002 c -7.442 0 -14.528 -2.746 -19.95 -7.733 l -38.209 -35.132 c -10.924 5.895 -22.33 10.628 -34.111 14.159 l -2.173 51.805 C 305.614 498.328 292.399 511 276.808 511 Z M 167.608 384.727 c 2.768 0 5.474 0.757 7.828 2.189 c 14.032 8.65 29.121 14.911 44.923 18.655 c 6.515 1.539 11.281 7.293 11.579 13.99 l 2.615 61.977 c 0.009 0.232 0.385 0.594 0.62 0.594 h 41.634 c 0.232 0 0.606 -0.359 0.615 -0.59 l 2.599 -61.924 c 0.301 -6.733 5.064 -12.486 11.587 -14.03 c 15.813 -3.752 30.93 -10.021 44.927 -18.639 c 2.308 -1.442 5.065 -2.229 7.894 -2.229 c 3.787 0 7.405 1.399 10.185 3.946 l 45.688 42.005 c 0.2 0.186 0.675 0.17 0.86 -0.016 l 29.502 -29.503 c 0.169 -0.171 0.181 -0.69 0.017 -0.869 l -41.979 -45.688 c -4.513 -4.929 -5.239 -12.334 -1.778 -18.026 c 8.636 -14.011 14.896 -29.103 18.658 -44.935 c 1.541 -6.51 7.294 -11.274 13.989 -11.572 l 61.965 -2.622 c 0.235 -0.009 0.597 -0.388 0.597 -0.622 v -41.625 c 0 -0.232 -0.359 -0.605 -0.59 -0.615 l -61.924 -2.599 c -6.733 -0.301 -12.486 -5.064 -14.03 -11.587 c -3.766 -15.836 -10.036 -30.953 -18.637 -44.913 c -3.524 -5.641 -2.841 -13.106 1.713 -18.08 l 42 -45.691 c 0.162 -0.176 0.15 -0.69 -0.019 -0.859 l -29.498 -29.502 c -0.174 -0.172 -0.664 -0.2 -0.859 -0.02 l -45.685 41.982 c -2.798 2.563 -6.415 3.963 -10.202 3.965 c -2.768 0 -5.477 -0.759 -7.83 -2.189 c -14.009 -8.636 -29.101 -14.896 -44.928 -18.655 c -6.508 -1.539 -11.274 -7.292 -11.573 -13.99 l -2.614 -61.977 c -0.01 -0.232 -0.386 -0.594 -0.62 -0.594 h -41.644 c -0.232 0 -0.606 0.359 -0.615 0.59 l -2.599 61.934 c -0.301 6.733 -5.065 12.486 -11.587 14.03 c -15.841 3.756 -30.951 10.026 -44.908 18.634 c -2.312 1.445 -5.072 2.234 -7.903 2.234 c -3.787 0 -7.405 -1.4 -10.184 -3.946 l -45.689 -42.001 c -0.202 -0.181 -0.69 -0.15 -0.854 0.017 l -29.51 29.507 c -0.167 0.169 -0.179 0.688 -0.017 0.865 l 41.981 45.682 c 4.539 5.018 5.226 12.42 1.741 18.084 c -8.612 13.977 -14.873 29.068 -18.62 44.871 c -1.537 6.515 -7.292 11.281 -13.99 11.58 l -61.977 2.614 c -0.232 0.01 -0.594 0.386 -0.594 0.621 v 41.624 c 0 0.232 0.359 0.606 0.59 0.615 l 61.924 2.599 c 6.733 0.301 12.486 5.065 14.03 11.587 c 3.766 15.836 10.036 30.954 18.637 44.913 c 3.524 5.641 2.841 13.106 -1.713 18.08 l -42 45.691 c -0.162 0.176 -0.15 0.688 0.019 0.859 l 29.502 29.503 c 0.177 0.171 0.668 0.201 0.865 0.019 l 45.684 -41.981 C 160.203 386.129 163.821 384.727 167.608 384.727 Z M 256 363.949 c -59.523 0 -107.949 -48.426 -107.949 -107.949 S 196.477 148.051 256 148.051 S 363.949 196.477 363.949 256 S 315.523 363.949 256 363.949 Z M 256 176.919 c -43.604 0 -79.081 35.477 -79.081 79.081 c 0 43.605 35.477 79.081 79.081 79.081 s 79.081 -35.476 79.081 -79.081 C 335.081 212.396 299.604 176.919 256 176.919 Z" /></svg>
