   <svg xmlns="http://www.w3.org/2000/svg" id="shoe" enable-background="new 0 0 100 100" viewBox="0 0 100 100" width="100px" height="100px" xmlns:xml="http://www.w3.org/XML/1998/namespace" xml:space="preserve" version="1.1"><g><path fill="#474747" d="M 12.638 50.605 c 2.229 3.609 5.084 10.099 5.084 19.749 h 4.85 c 0 0 -0.307 -9.401 4.261 -14.343 C 22.967 54.164 18.316 52.333 12.638 50.605 Z" /><path fill="#474747" d="M 47.607 69.688 c 3.2 2.883 6.397 3.378 10.92 3.378 c 2.36 0 17.024 -1.34 24.763 -4.049 c 7.136 -2.419 10.592 -8.489 0 -8.966 c -7.546 -0.34 -11.35 -1.983 -12.92 -2.902 c -0.085 0.329 -0.193 0.655 -0.354 0.972 c -1.219 2.414 -4.391 3.672 -9.426 3.736 c -0.043 0 -0.088 0 -0.131 0 c -11.551 0 -28.063 -19.216 -35.967 -29.347 c -2.378 -2.008 -4.121 -3.519 -4.937 -4.135 c -1.433 -1.082 -2.492 -1.442 -3.27 -1.442 c -1.554 0 -1.978 1.442 -1.978 1.442 C 8.819 39.17 9.671 44.696 10.957 47.256 c 0.706 1.4 1.539 1.918 1.539 1.918 c 6.2 1.858 11.223 3.856 15.362 5.869 C 39.442 60.682 44.023 66.453 47.607 69.688 Z" /><path fill="#474747" d="M 60.457 60.535 c 0.041 0 0.077 0 0.116 0 c 4.503 -0.057 7.282 -1.069 8.264 -3.011 c 0.154 -0.307 0.253 -0.632 0.314 -0.963 c -0.687 0.105 -1.395 0.165 -2.128 0.165 c -11.011 0 -26.866 -11.461 -37.298 -19.89 C 38.251 47.032 51.279 60.535 60.457 60.535 Z" /></g></svg>
          