  <svg xmlns="http://www.w3.org/2000/svg" id="shop" enable-background="new 0 0 100 100" viewBox="0 0 100 100" width="100px" height="100px" xmlns:xml="http://www.w3.org/XML/1998/namespace" xml:space="preserve" version="1.1"><g><path d="M 98.839 37.457 L 79.623 8.634 c -0.179 -0.267 -0.479 -0.428 -0.8 -0.428 H 21.176 c -0.321 0 -0.621 0.161 -0.799 0.428 L 1.162 37.457 C 1.056 37.615 1 37.801 1 37.99 c 0 5.826 4.742 10.568 10.569 10.568 c 4.258 0 7.936 -2.531 9.607 -6.166 c 1.672 3.635 5.35 6.166 9.608 6.166 s 7.936 -2.531 9.608 -6.166 c 1.672 3.635 5.35 6.166 9.608 6.166 s 7.936 -2.531 9.607 -6.166 c 1.673 3.635 5.351 6.166 9.608 6.166 s 7.936 -2.531 9.607 -6.166 c 1.672 3.635 5.351 6.166 9.608 6.166 C 94.258 48.559 99 43.816 99 37.99 C 99 37.801 98.943 37.615 98.839 37.457 Z M 30.784 46.638 c -4.717 0 -8.551 -3.803 -8.632 -8.501 L 32.203 13.01 h 10.55 l -3.314 24.853 c -0.004 0.022 0.005 0.045 0.004 0.067 c 0 0.021 -0.012 0.04 -0.012 0.061 C 39.431 42.759 35.553 46.638 30.784 46.638 Z M 69.216 46.638 c -4.769 0 -8.647 -3.879 -8.647 -8.647 c 0 -0.021 -0.011 -0.039 -0.011 -0.061 c -0.002 -0.022 0.007 -0.045 0.004 -0.067 L 57.247 13.01 h 10.55 l 10.051 25.127 C 77.767 42.835 73.934 46.638 69.216 46.638 Z" /><g><path d="M 88.432 45.677 c -1.063 0 -1.922 0.859 -1.922 1.921 V 86.99 H 50.961 V 59.128 c 0 -0.531 -0.43 -0.961 -0.961 -0.961 H 30.784 c -0.531 0 -0.96 0.43 -0.96 0.961 V 86.99 H 13.49 V 47.598 c 0 -1.062 -0.859 -1.921 -1.921 -1.921 c -1.063 0 -1.922 0.859 -1.922 1.921 v 42.274 c 0 1.063 0.859 1.922 1.922 1.922 h 76.863 c 1.062 0 1.921 -0.859 1.921 -1.922 V 47.598 C 90.353 46.536 89.493 45.677 88.432 45.677 Z" /><path d="M 60.568 77.383 h 17.294 c 0.531 0 0.961 -0.431 0.961 -0.961 V 59.128 c 0 -0.531 -0.43 -0.961 -0.961 -0.961 H 60.568 c -0.531 0 -0.961 0.43 -0.961 0.961 v 17.294 C 59.607 76.952 60.037 77.383 60.568 77.383 Z" /></g></g></svg>
         